<svg xmlns="http://www.w3.org/2000/svg" viewBox="0 0 500 372.61"><g id="freepik--background-complete--inject-152"><rect y="327.45" width="500" height="0.25" style="fill:#ebebeb"></rect><rect x="416.78" y="343.54" width="33.12" height="0.25" style="fill:#ebebeb"></rect><rect x="322.53" y="346.26" width="8.69" height="0.25" style="fill:#ebebeb"></rect><rect x="396.59" y="334.26" width="19.19" height="0.25" style="fill:#ebebeb"></rect><rect x="52.46" y="335.94" width="43.19" height="0.25" style="fill:#ebebeb"></rect><rect x="104.56" y="335.94" width="6.33" height="0.25" style="fill:#ebebeb"></rect><rect x="131.47" y="340.16" width="93.68" height="0.25" style="fill:#ebebeb"></rect><path d="M237,337.8H43.91a5.71,5.71,0,0,1-5.7-5.71V60.66A5.71,5.71,0,0,1,43.91,55H237a5.71,5.71,0,0,1,5.71,5.71V332.09A5.71,5.71,0,0,1,237,337.8ZM43.91,55.2a5.46,5.46,0,0,0-5.45,5.46V332.09a5.46,5.46,0,0,0,5.45,5.46H237a5.47,5.47,0,0,0,5.46-5.46V60.66A5.47,5.47,0,0,0,237,55.2Z" transform="translate(0 -54.95)" style="fill:#ebebeb"></path><path d="M453.31,337.8H260.21a5.72,5.72,0,0,1-5.71-5.71V60.66A5.72,5.72,0,0,1,260.21,55h193.1A5.71,5.71,0,0,1,459,60.66V332.09A5.71,5.71,0,0,1,453.31,337.8ZM260.21,55.2a5.47,5.47,0,0,0-5.46,5.46V332.09a5.47,5.47,0,0,0,5.46,5.46h193.1a5.47,5.47,0,0,0,5.46-5.46V60.66a5.47,5.47,0,0,0-5.46-5.46Z" transform="translate(0 -54.95)" style="fill:#ebebeb"></path><rect x="69.11" y="62.1" width="188.27" height="181.47" style="fill:#e0e0e0"></rect><rect x="72.13" y="65.39" width="185.25" height="175.01" style="fill:#f5f5f5"></rect><polygon points="73.5 198.02 73.5 145.38 78.97 145.38 78.97 138.43 91.27 132.67 91.27 125.56 93.32 125.56 93.32 145.38 95.37 145.38 95.37 198.02 98.11 198.02 98.11 170.68 104.26 170.68 104.26 156.32 106.31 156.32 106.31 198.02 111.1 198.02 111.1 182.3 114.51 182.3 114.51 178.2 122.03 178.2 122.03 163.84 126.14 163.84 126.14 154.27 130.92 154.27 130.92 139.91 132.97 139.91 132.97 154.27 137.76 154.27 137.76 163.84 141.86 163.84 141.86 178.2 149.38 178.2 149.38 182.3 152.8 182.3 152.8 198.02 156.9 198.02 156.9 178.2 164.42 178.2 164.42 134.44 166.47 134.44 166.47 129.66 182.88 129.66 182.88 134.44 186.3 134.44 186.3 165.89 199.97 165.89 199.97 169.31 204.76 169.31 204.76 171.36 199.97 171.36 199.97 183.66 214.33 183.66 214.33 142.65 217.06 142.65 217.06 134.44 223.9 134.44 223.9 103 225.95 103 225.95 134.44 230.73 134.44 230.73 142.65 257.37 142.65 257.37 240.41 72.13 240.41 72.13 198.02 73.5 198.02" style="fill:#e6e6e6"></polygon><rect x="241.2" y="144.79" width="1.94" height="1.94" style="fill:#f0f0f0"></rect><rect x="241.2" y="148.04" width="1.94" height="1.94" style="fill:#f0f0f0"></rect><rect x="241.2" y="161.03" width="1.94" height="1.94" style="fill:#f0f0f0"></rect><rect x="241.2" y="164.27" width="1.94" height="1.94" style="fill:#f0f0f0"></rect><rect x="241.2" y="167.52" width="1.94" height="1.94" style="fill:#f0f0f0"></rect><rect x="241.2" y="177.26" width="1.94" height="1.94" style="fill:#f0f0f0"></rect><rect x="241.2" y="180.51" width="1.94" height="1.94" style="fill:#f0f0f0"></rect><rect x="238.13" y="157.78" width="1.94" height="1.94" style="fill:#f0f0f0"></rect><rect x="238.13" y="161.03" width="1.94" height="1.94" style="fill:#f0f0f0"></rect><rect x="238.13" y="164.27" width="1.94" height="1.94" style="fill:#f0f0f0"></rect><rect x="238.13" y="167.52" width="1.94" height="1.94" style="fill:#f0f0f0"></rect><rect x="238.13" y="170.77" width="1.94" height="1.94" style="fill:#f0f0f0"></rect><rect x="238.13" y="177.26" width="1.94" height="1.94" style="fill:#f0f0f0"></rect><rect x="238.13" y="180.51" width="1.94" height="1.94" style="fill:#f0f0f0"></rect><rect x="235.05" y="144.79" width="1.94" height="1.94" style="fill:#f0f0f0"></rect><rect x="235.05" y="148.04" width="1.94" height="1.94" style="fill:#f0f0f0"></rect><rect x="235.05" y="151.28" width="1.94" height="1.94" style="fill:#f0f0f0"></rect><rect x="235.05" y="154.53" width="1.94" height="1.94" style="fill:#f0f0f0"></rect><rect x="235.05" y="157.78" width="1.94" height="1.94" style="fill:#f0f0f0"></rect><rect x="235.05" y="161.03" width="1.94" height="1.94" style="fill:#f0f0f0"></rect><rect x="235.05" y="164.27" width="1.94" height="1.94" style="fill:#f0f0f0"></rect><rect x="235.05" y="167.52" width="1.94" height="1.94" style="fill:#f0f0f0"></rect><rect x="235.05" y="170.77" width="1.94" height="1.94" style="fill:#f0f0f0"></rect><rect x="235.05" y="174.02" width="1.94" height="1.94" style="fill:#f0f0f0"></rect><rect x="235.05" y="180.51" width="1.94" height="1.94" style="fill:#f0f0f0"></rect><rect x="231.97" y="144.79" width="1.94" height="1.94" style="fill:#f0f0f0"></rect><rect x="231.97" y="148.04" width="1.94" height="1.94" style="fill:#f0f0f0"></rect><rect x="231.97" y="151.28" width="1.94" height="1.94" style="fill:#f0f0f0"></rect><rect x="231.97" y="154.53" width="1.94" height="1.94" style="fill:#f0f0f0"></rect><rect x="231.97" y="157.78" width="1.94" height="1.94" style="fill:#f0f0f0"></rect><rect x="231.97" y="161.03" width="1.94" height="1.94" style="fill:#f0f0f0"></rect><rect x="231.97" y="164.27" width="1.94" height="1.94" style="fill:#f0f0f0"></rect><rect x="231.97" y="193.5" width="1.94" height="1.94" style="fill:#f0f0f0"></rect><rect x="228.9" y="144.79" width="1.94" height="1.94" style="fill:#f0f0f0"></rect><rect x="228.9" y="148.04" width="1.94" height="1.94" style="fill:#f0f0f0"></rect><rect x="228.9" y="151.28" width="1.94" height="1.94" style="fill:#f0f0f0"></rect><rect x="228.9" y="154.53" width="1.94" height="1.94" style="fill:#f0f0f0"></rect><rect x="228.9" y="157.78" width="1.94" height="1.94" style="fill:#f0f0f0"></rect><rect x="228.9" y="161.03" width="1.94" height="1.94" style="fill:#f0f0f0"></rect><rect x="228.9" y="164.27" width="1.94" height="1.94" style="fill:#f0f0f0"></rect><rect x="228.9" y="167.52" width="1.94" height="1.94" style="fill:#f0f0f0"></rect><rect x="228.9" y="187" width="1.94" height="1.94" style="fill:#f0f0f0"></rect><rect x="228.9" y="190.25" width="1.94" height="1.94" style="fill:#f0f0f0"></rect><rect x="228.9" y="193.5" width="1.94" height="1.94" style="fill:#f0f0f0"></rect><rect x="228.9" y="196.75" width="1.94" height="1.94" style="fill:#f0f0f0"></rect><rect x="228.9" y="209.74" width="1.94" height="1.94" style="fill:#f0f0f0"></rect><rect x="225.82" y="144.79" width="1.94" height="1.94" style="fill:#f0f0f0"></rect><rect x="225.82" y="148.04" width="1.94" height="1.94" style="fill:#f0f0f0"></rect><rect x="225.82" y="151.28" width="1.94" height="1.94" style="fill:#f0f0f0"></rect><rect x="225.82" y="154.53" width="1.94" height="1.94" style="fill:#f0f0f0"></rect><rect x="225.82" y="157.78" width="1.94" height="1.94" style="fill:#f0f0f0"></rect><rect x="225.82" y="161.03" width="1.94" height="1.94" style="fill:#f0f0f0"></rect><rect x="225.82" y="164.27" width="1.94" height="1.94" style="fill:#f0f0f0"></rect><rect x="225.82" y="167.52" width="1.94" height="1.94" style="fill:#f0f0f0"></rect><rect x="225.82" y="170.77" width="1.94" height="1.94" style="fill:#f0f0f0"></rect><rect x="225.82" y="174.02" width="1.94" height="1.94" style="fill:#f0f0f0"></rect><rect x="225.82" y="183.76" width="1.94" height="1.94" style="fill:#f0f0f0"></rect><rect x="225.82" y="187" width="1.94" height="1.94" style="fill:#f0f0f0"></rect><rect x="225.82" y="190.25" width="1.94" height="1.94" style="fill:#f0f0f0"></rect><rect x="225.82" y="193.5" width="1.94" height="1.94" style="fill:#f0f0f0"></rect><rect x="225.82" y="196.75" width="1.94" height="1.94" style="fill:#f0f0f0"></rect><rect x="225.82" y="209.74" width="1.94" height="1.94" style="fill:#f0f0f0"></rect><rect x="222.74" y="144.79" width="1.94" height="1.94" style="fill:#f0f0f0"></rect><rect x="222.74" y="148.04" width="1.94" height="1.94" style="fill:#f0f0f0"></rect><rect x="222.74" y="151.28" width="1.94" height="1.94" style="fill:#f0f0f0"></rect><rect x="222.74" y="154.53" width="1.94" height="1.94" style="fill:#f0f0f0"></rect><rect x="222.74" y="157.78" width="1.94" height="1.94" style="fill:#f0f0f0"></rect><rect x="222.74" y="161.03" width="1.94" height="1.94" style="fill:#f0f0f0"></rect><rect x="222.74" y="164.27" width="1.94" height="1.94" style="fill:#f0f0f0"></rect><rect x="222.74" y="167.52" width="1.94" height="1.94" style="fill:#f0f0f0"></rect><rect x="222.74" y="170.77" width="1.94" height="1.94" style="fill:#f0f0f0"></rect><rect x="222.74" y="174.02" width="1.94" height="1.94" style="fill:#f0f0f0"></rect><rect x="222.74" y="177.26" width="1.94" height="1.94" style="fill:#f0f0f0"></rect><rect x="222.74" y="180.51" width="1.94" height="1.94" style="fill:#f0f0f0"></rect><rect x="222.74" y="183.76" width="1.94" height="1.94" style="fill:#f0f0f0"></rect><rect x="222.74" y="187" width="1.94" height="1.94" style="fill:#f0f0f0"></rect><rect x="222.74" y="190.25" width="1.94" height="1.94" style="fill:#f0f0f0"></rect><rect x="222.74" y="193.5" width="1.94" height="1.94" style="fill:#f0f0f0"></rect><rect x="222.74" y="196.75" width="1.94" height="1.94" style="fill:#f0f0f0"></rect><rect x="222.74" y="199.99" width="1.94" height="1.94" style="fill:#f0f0f0"></rect><rect x="219.67" y="144.79" width="1.94" height="1.94" style="fill:#f0f0f0"></rect><rect x="219.67" y="148.04" width="1.94" height="1.94" style="fill:#f0f0f0"></rect><rect x="219.67" y="151.28" width="1.94" height="1.94" style="fill:#f0f0f0"></rect><rect x="219.67" y="154.53" width="1.94" height="1.94" style="fill:#f0f0f0"></rect><rect x="219.67" y="157.78" width="1.94" height="1.94" style="fill:#f0f0f0"></rect><rect x="219.67" y="161.03" width="1.94" height="1.94" style="fill:#f0f0f0"></rect><rect x="219.67" y="164.27" width="1.94" height="1.94" style="fill:#f0f0f0"></rect><rect x="219.67" y="167.52" width="1.94" height="1.94" style="fill:#f0f0f0"></rect><rect x="219.67" y="170.77" width="1.94" height="1.94" style="fill:#f0f0f0"></rect><rect x="219.67" y="174.02" width="1.94" height="1.94" style="fill:#f0f0f0"></rect><rect x="219.67" y="183.76" width="1.94" height="1.94" style="fill:#f0f0f0"></rect><rect x="219.67" y="187" width="1.94" height="1.94" style="fill:#f0f0f0"></rect><rect x="219.67" y="190.25" width="1.94" height="1.94" style="fill:#f0f0f0"></rect><rect x="219.67" y="193.5" width="1.94" height="1.94" style="fill:#f0f0f0"></rect><rect x="216.59" y="144.79" width="1.94" height="1.94" style="fill:#f0f0f0"></rect><rect x="216.59" y="148.04" width="1.94" height="1.94" style="fill:#f0f0f0"></rect><rect x="216.59" y="151.28" width="1.94" height="1.94" style="fill:#f0f0f0"></rect><rect x="216.59" y="154.53" width="1.94" height="1.94" style="fill:#f0f0f0"></rect><rect x="216.59" y="157.78" width="1.94" height="1.94" style="fill:#f0f0f0"></rect><rect x="216.59" y="161.03" width="1.94" height="1.94" style="fill:#f0f0f0"></rect><rect x="216.59" y="164.27" width="1.94" height="1.94" style="fill:#f0f0f0"></rect><rect x="216.59" y="167.52" width="1.94" height="1.94" style="fill:#f0f0f0"></rect><rect x="216.59" y="170.77" width="1.94" height="1.94" style="fill:#f0f0f0"></rect><rect x="216.59" y="174.02" width="1.94" height="1.94" style="fill:#f0f0f0"></rect><rect x="216.59" y="183.76" width="1.94" height="1.94" style="fill:#f0f0f0"></rect><rect x="216.59" y="187" width="1.94" height="1.94" style="fill:#f0f0f0"></rect><rect x="216.59" y="190.25" width="1.94" height="1.94" style="fill:#f0f0f0"></rect><rect x="181.95" y="136.36" width="1.94" height="1.94" style="fill:#f0f0f0"></rect><rect x="181.95" y="139.61" width="1.94" height="1.94" style="fill:#f0f0f0"></rect><rect x="181.95" y="142.85" width="1.94" height="1.94" style="fill:#f0f0f0"></rect><rect x="181.95" y="146.1" width="1.94" height="1.94" style="fill:#f0f0f0"></rect><rect x="181.95" y="149.35" width="1.94" height="1.94" style="fill:#f0f0f0"></rect><rect x="181.95" y="152.59" width="1.94" height="1.94" style="fill:#f0f0f0"></rect><rect x="181.95" y="155.84" width="1.94" height="1.94" style="fill:#f0f0f0"></rect><rect x="181.95" y="159.09" width="1.94" height="1.94" style="fill:#f0f0f0"></rect><rect x="181.95" y="168.83" width="1.94" height="1.94" style="fill:#f0f0f0"></rect><rect x="181.95" y="172.08" width="1.94" height="1.94" style="fill:#f0f0f0"></rect><rect x="178.88" y="136.36" width="1.94" height="1.94" style="fill:#f0f0f0"></rect><rect x="178.88" y="139.61" width="1.94" height="1.94" style="fill:#f0f0f0"></rect><rect x="178.88" y="142.85" width="1.94" height="1.94" style="fill:#f0f0f0"></rect><rect x="178.88" y="146.1" width="1.94" height="1.94" style="fill:#f0f0f0"></rect><rect x="178.88" y="149.35" width="1.94" height="1.94" style="fill:#f0f0f0"></rect><rect x="178.88" y="152.59" width="1.94" height="1.94" style="fill:#f0f0f0"></rect><rect x="178.88" y="155.84" width="1.94" height="1.94" style="fill:#f0f0f0"></rect><rect x="178.88" y="159.09" width="1.94" height="1.94" style="fill:#f0f0f0"></rect><rect x="178.88" y="172.08" width="1.94" height="1.94" style="fill:#f0f0f0"></rect><rect x="175.8" y="136.36" width="1.94" height="1.94" style="fill:#f0f0f0"></rect><rect x="175.8" y="139.61" width="1.94" height="1.94" style="fill:#f0f0f0"></rect><rect x="175.8" y="142.85" width="1.94" height="1.94" style="fill:#f0f0f0"></rect><rect x="175.8" y="146.1" width="1.94" height="1.94" style="fill:#f0f0f0"></rect><rect x="175.8" y="149.35" width="1.94" height="1.94" style="fill:#f0f0f0"></rect><rect x="175.8" y="152.59" width="1.94" height="1.94" style="fill:#f0f0f0"></rect><rect x="175.8" y="155.84" width="1.94" height="1.94" style="fill:#f0f0f0"></rect><rect x="175.8" y="159.09" width="1.94" height="1.94" style="fill:#f0f0f0"></rect><rect x="172.72" y="136.36" width="1.94" height="1.94" style="fill:#f0f0f0"></rect><rect x="172.72" y="139.61" width="1.94" height="1.94" style="fill:#f0f0f0"></rect><rect x="172.72" y="142.85" width="1.94" height="1.94" style="fill:#f0f0f0"></rect><rect x="172.72" y="146.1" width="1.94" height="1.94" style="fill:#f0f0f0"></rect><rect x="172.72" y="149.35" width="1.94" height="1.94" style="fill:#f0f0f0"></rect><rect x="172.72" y="152.59" width="1.94" height="1.94" style="fill:#f0f0f0"></rect><rect x="172.72" y="159.09" width="1.94" height="1.94" style="fill:#f0f0f0"></rect><rect x="172.72" y="162.34" width="1.94" height="1.94" style="fill:#f0f0f0"></rect><rect x="172.72" y="172.08" width="1.94" height="1.94" style="fill:#f0f0f0"></rect><rect x="172.72" y="175.33" width="1.94" height="1.94" style="fill:#f0f0f0"></rect><rect x="172.72" y="178.57" width="1.94" height="1.94" style="fill:#f0f0f0"></rect><rect x="172.72" y="181.82" width="1.94" height="1.94" style="fill:#f0f0f0"></rect><rect x="172.72" y="185.07" width="1.94" height="1.94" style="fill:#f0f0f0"></rect><rect x="172.72" y="188.31" width="1.94" height="1.94" style="fill:#f0f0f0"></rect><rect x="172.72" y="191.56" width="1.94" height="1.94" style="fill:#f0f0f0"></rect><rect x="169.65" y="136.36" width="1.94" height="1.94" style="fill:#f0f0f0"></rect><rect x="169.65" y="139.61" width="1.94" height="1.94" style="fill:#f0f0f0"></rect><rect x="169.65" y="142.85" width="1.94" height="1.94" style="fill:#f0f0f0"></rect><rect x="169.65" y="146.1" width="1.94" height="1.94" style="fill:#f0f0f0"></rect><rect x="169.65" y="149.35" width="1.94" height="1.94" style="fill:#f0f0f0"></rect><rect x="169.65" y="152.59" width="1.94" height="1.94" style="fill:#f0f0f0"></rect><rect x="169.65" y="162.34" width="1.94" height="1.94" style="fill:#f0f0f0"></rect><rect x="169.65" y="165.58" width="1.94" height="1.94" style="fill:#f0f0f0"></rect><rect x="169.65" y="168.83" width="1.94" height="1.94" style="fill:#f0f0f0"></rect><rect x="169.65" y="172.08" width="1.94" height="1.94" style="fill:#f0f0f0"></rect><rect x="169.65" y="175.33" width="1.94" height="1.94" style="fill:#f0f0f0"></rect><rect x="169.65" y="178.57" width="1.94" height="1.94" style="fill:#f0f0f0"></rect><rect x="169.65" y="181.82" width="1.94" height="1.94" style="fill:#f0f0f0"></rect><rect x="169.65" y="185.07" width="1.94" height="1.94" style="fill:#f0f0f0"></rect><rect x="169.65" y="188.31" width="1.94" height="1.94" style="fill:#f0f0f0"></rect><rect x="169.65" y="191.56" width="1.94" height="1.94" style="fill:#f0f0f0"></rect><rect x="169.65" y="194.81" width="1.94" height="1.94" style="fill:#f0f0f0"></rect><rect x="169.65" y="201.3" width="1.94" height="1.94" style="fill:#f0f0f0"></rect><rect x="166.57" y="136.36" width="1.94" height="1.94" style="fill:#f0f0f0"></rect><rect x="166.57" y="139.61" width="1.94" height="1.94" style="fill:#f0f0f0"></rect><rect x="166.57" y="142.85" width="1.94" height="1.94" style="fill:#f0f0f0"></rect><rect x="166.57" y="146.1" width="1.94" height="1.94" style="fill:#f0f0f0"></rect><rect x="166.57" y="149.35" width="1.94" height="1.94" style="fill:#f0f0f0"></rect><rect x="166.57" y="152.59" width="1.94" height="1.94" style="fill:#f0f0f0"></rect><rect x="166.57" y="162.34" width="1.94" height="1.94" style="fill:#f0f0f0"></rect><rect x="166.57" y="165.58" width="1.94" height="1.94" style="fill:#f0f0f0"></rect><rect x="166.57" y="168.83" width="1.94" height="1.94" style="fill:#f0f0f0"></rect><rect x="166.57" y="172.08" width="1.94" height="1.94" style="fill:#f0f0f0"></rect><rect x="166.57" y="181.82" width="1.94" height="1.94" style="fill:#f0f0f0"></rect><rect x="166.57" y="185.07" width="1.94" height="1.94" style="fill:#f0f0f0"></rect><rect x="166.57" y="188.31" width="1.94" height="1.94" style="fill:#f0f0f0"></rect><rect x="166.57" y="191.56" width="1.94" height="1.94" style="fill:#f0f0f0"></rect><rect x="166.57" y="194.81" width="1.94" height="1.94" style="fill:#f0f0f0"></rect><rect x="166.57" y="201.3" width="1.94" height="1.94" style="fill:#f0f0f0"></rect><rect x="166.57" y="204.55" width="1.94" height="1.94" style="fill:#f0f0f0"></rect><rect x="138.65" y="166.55" width="1.94" height="1.94" style="fill:#f0f0f0"></rect><rect x="138.65" y="169.8" width="1.94" height="1.94" style="fill:#f0f0f0"></rect><rect x="138.65" y="173.05" width="1.94" height="1.94" style="fill:#f0f0f0"></rect><rect x="138.65" y="176.29" width="1.94" height="1.94" style="fill:#f0f0f0"></rect><rect x="138.65" y="179.54" width="1.94" height="1.94" style="fill:#f0f0f0"></rect><rect x="138.65" y="182.79" width="1.94" height="1.94" style="fill:#f0f0f0"></rect><rect x="138.65" y="186.04" width="1.94" height="1.94" style="fill:#f0f0f0"></rect><rect x="138.65" y="195.78" width="1.94" height="1.94" style="fill:#f0f0f0"></rect><rect x="138.65" y="199.03" width="1.94" height="1.94" style="fill:#f0f0f0"></rect><rect x="138.65" y="202.27" width="1.94" height="1.94" style="fill:#f0f0f0"></rect><rect x="135.58" y="166.55" width="1.94" height="1.94" style="fill:#f0f0f0"></rect><rect x="135.58" y="169.8" width="1.94" height="1.94" style="fill:#f0f0f0"></rect><rect x="135.58" y="173.05" width="1.94" height="1.94" style="fill:#f0f0f0"></rect><rect x="135.58" y="176.29" width="1.94" height="1.94" style="fill:#f0f0f0"></rect><rect x="135.58" y="179.54" width="1.94" height="1.94" style="fill:#f0f0f0"></rect><rect x="135.58" y="182.79" width="1.94" height="1.94" style="fill:#f0f0f0"></rect><rect x="135.58" y="186.04" width="1.94" height="1.94" style="fill:#f0f0f0"></rect><rect x="132.5" y="166.55" width="1.94" height="1.94" style="fill:#f0f0f0"></rect><rect x="132.5" y="169.8" width="1.94" height="1.94" style="fill:#f0f0f0"></rect><rect x="132.5" y="173.05" width="1.94" height="1.94" style="fill:#f0f0f0"></rect><rect x="132.5" y="176.29" width="1.94" height="1.94" style="fill:#f0f0f0"></rect><rect x="132.5" y="179.54" width="1.94" height="1.94" style="fill:#f0f0f0"></rect><rect x="132.5" y="182.79" width="1.94" height="1.94" style="fill:#f0f0f0"></rect><rect x="132.5" y="186.04" width="1.94" height="1.94" style="fill:#f0f0f0"></rect><rect x="129.43" y="166.55" width="1.94" height="1.94" style="fill:#f0f0f0"></rect><rect x="129.43" y="169.8" width="1.94" height="1.94" style="fill:#f0f0f0"></rect><rect x="129.43" y="173.05" width="1.94" height="1.94" style="fill:#f0f0f0"></rect><rect x="129.43" y="176.29" width="1.94" height="1.94" style="fill:#f0f0f0"></rect><rect x="129.43" y="179.54" width="1.94" height="1.94" style="fill:#f0f0f0"></rect><rect x="129.43" y="182.79" width="1.94" height="1.94" style="fill:#f0f0f0"></rect><rect x="129.43" y="186.04" width="1.94" height="1.94" style="fill:#f0f0f0"></rect><rect x="129.43" y="189.28" width="1.94" height="1.94" style="fill:#f0f0f0"></rect><rect x="129.43" y="192.53" width="1.94" height="1.94" style="fill:#f0f0f0"></rect><rect x="129.43" y="195.78" width="1.94" height="1.94" style="fill:#f0f0f0"></rect><rect x="129.43" y="199.03" width="1.94" height="1.94" style="fill:#f0f0f0"></rect><rect x="126.35" y="166.55" width="1.94" height="1.94" style="fill:#f0f0f0"></rect><rect x="126.35" y="169.8" width="1.94" height="1.94" style="fill:#f0f0f0"></rect><rect x="126.35" y="173.05" width="1.94" height="1.94" style="fill:#f0f0f0"></rect><rect x="126.35" y="176.29" width="1.94" height="1.94" style="fill:#f0f0f0"></rect><rect x="126.35" y="179.54" width="1.94" height="1.94" style="fill:#f0f0f0"></rect><rect x="126.35" y="182.79" width="1.94" height="1.94" style="fill:#f0f0f0"></rect><rect x="126.35" y="186.04" width="1.94" height="1.94" style="fill:#f0f0f0"></rect><rect x="126.35" y="189.28" width="1.94" height="1.94" style="fill:#f0f0f0"></rect><rect x="126.35" y="192.53" width="1.94" height="1.94" style="fill:#f0f0f0"></rect><rect x="126.35" y="195.78" width="1.94" height="1.94" style="fill:#f0f0f0"></rect><rect x="126.35" y="199.03" width="1.94" height="1.94" style="fill:#f0f0f0"></rect><rect x="126.35" y="202.27" width="1.94" height="1.94" style="fill:#f0f0f0"></rect><rect x="126.35" y="212.01" width="1.94" height="1.94" style="fill:#f0f0f0"></rect><rect x="126.35" y="215.26" width="1.94" height="1.94" style="fill:#f0f0f0"></rect><rect x="123.27" y="166.55" width="1.94" height="1.94" style="fill:#f0f0f0"></rect><rect x="123.27" y="169.8" width="1.94" height="1.94" style="fill:#f0f0f0"></rect><rect x="123.27" y="173.05" width="1.94" height="1.94" style="fill:#f0f0f0"></rect><rect x="123.27" y="182.79" width="1.94" height="1.94" style="fill:#f0f0f0"></rect><rect x="123.27" y="186.04" width="1.94" height="1.94" style="fill:#f0f0f0"></rect><rect x="123.27" y="189.28" width="1.94" height="1.94" style="fill:#f0f0f0"></rect><rect x="123.27" y="192.53" width="1.94" height="1.94" style="fill:#f0f0f0"></rect><rect x="123.27" y="195.78" width="1.94" height="1.94" style="fill:#f0f0f0"></rect><rect x="123.27" y="199.03" width="1.94" height="1.94" style="fill:#f0f0f0"></rect><rect x="123.27" y="202.27" width="1.94" height="1.94" style="fill:#f0f0f0"></rect><rect x="123.27" y="212.01" width="1.94" height="1.94" style="fill:#f0f0f0"></rect><rect x="123.27" y="215.26" width="1.94" height="1.94" style="fill:#f0f0f0"></rect><rect x="123.27" y="218.51" width="1.94" height="1.94" style="fill:#f0f0f0"></rect><rect x="91.03" y="147.07" width="1.94" height="1.94" style="fill:#f0f0f0"></rect><rect x="91.03" y="150.32" width="1.94" height="1.94" style="fill:#f0f0f0"></rect><rect x="91.03" y="153.56" width="1.94" height="1.94" style="fill:#f0f0f0"></rect><rect x="91.03" y="156.81" width="1.94" height="1.94" style="fill:#f0f0f0"></rect><rect x="91.03" y="160.06" width="1.94" height="1.94" style="fill:#f0f0f0"></rect><rect x="91.03" y="163.31" width="1.94" height="1.94" style="fill:#f0f0f0"></rect><rect x="91.03" y="166.55" width="1.94" height="1.94" style="fill:#f0f0f0"></rect><rect x="91.03" y="169.8" width="1.94" height="1.94" style="fill:#f0f0f0"></rect><rect x="91.03" y="173.05" width="1.94" height="1.94" style="fill:#f0f0f0"></rect><rect x="91.03" y="176.29" width="1.94" height="1.94" style="fill:#f0f0f0"></rect><rect x="91.03" y="179.54" width="1.94" height="1.94" style="fill:#f0f0f0"></rect><rect x="91.03" y="182.79" width="1.94" height="1.94" style="fill:#f0f0f0"></rect><rect x="91.03" y="186.04" width="1.94" height="1.94" style="fill:#f0f0f0"></rect><rect x="91.03" y="189.28" width="1.94" height="1.94" style="fill:#f0f0f0"></rect><rect x="91.03" y="192.53" width="1.94" height="1.94" style="fill:#f0f0f0"></rect><rect x="91.03" y="195.78" width="1.94" height="1.94" style="fill:#f0f0f0"></rect><rect x="91.03" y="199.03" width="1.94" height="1.94" style="fill:#f0f0f0"></rect><rect x="91.03" y="202.27" width="1.94" height="1.94" style="fill:#f0f0f0"></rect><rect x="91.03" y="205.52" width="1.94" height="1.94" style="fill:#f0f0f0"></rect><rect x="91.03" y="208.77" width="1.94" height="1.94" style="fill:#f0f0f0"></rect><rect x="91.03" y="212.01" width="1.94" height="1.94" style="fill:#f0f0f0"></rect><rect x="91.03" y="215.26" width="1.94" height="1.94" style="fill:#f0f0f0"></rect><rect x="91.03" y="218.51" width="1.94" height="1.94" style="fill:#f0f0f0"></rect><rect x="87.95" y="147.07" width="1.94" height="1.94" style="fill:#f0f0f0"></rect><rect x="87.95" y="150.32" width="1.94" height="1.94" style="fill:#f0f0f0"></rect><rect x="87.95" y="153.56" width="1.94" height="1.94" style="fill:#f0f0f0"></rect><rect x="87.95" y="156.81" width="1.94" height="1.94" style="fill:#f0f0f0"></rect><rect x="87.95" y="160.06" width="1.94" height="1.94" style="fill:#f0f0f0"></rect><rect x="87.95" y="163.31" width="1.94" height="1.94" style="fill:#f0f0f0"></rect><rect x="87.95" y="166.55" width="1.94" height="1.94" style="fill:#f0f0f0"></rect><rect x="87.95" y="169.8" width="1.94" height="1.94" style="fill:#f0f0f0"></rect><rect x="87.95" y="173.05" width="1.94" height="1.94" style="fill:#f0f0f0"></rect><rect x="87.95" y="176.29" width="1.94" height="1.94" style="fill:#f0f0f0"></rect><rect x="87.95" y="179.54" width="1.94" height="1.94" style="fill:#f0f0f0"></rect><rect x="87.95" y="182.79" width="1.94" height="1.94" style="fill:#f0f0f0"></rect><rect x="87.95" y="186.04" width="1.94" height="1.94" style="fill:#f0f0f0"></rect><rect x="87.95" y="189.28" width="1.94" height="1.94" style="fill:#f0f0f0"></rect><rect x="87.95" y="192.53" width="1.94" height="1.94" style="fill:#f0f0f0"></rect><rect x="87.95" y="195.78" width="1.94" height="1.94" style="fill:#f0f0f0"></rect><rect x="87.95" y="199.03" width="1.94" height="1.94" style="fill:#f0f0f0"></rect><rect x="87.95" y="202.27" width="1.94" height="1.94" style="fill:#f0f0f0"></rect><rect x="87.95" y="205.52" width="1.94" height="1.94" style="fill:#f0f0f0"></rect><rect x="84.87" y="147.07" width="1.94" height="1.94" style="fill:#f0f0f0"></rect><rect x="84.87" y="150.32" width="1.94" height="1.94" style="fill:#f0f0f0"></rect><rect x="84.87" y="153.56" width="1.94" height="1.94" style="fill:#f0f0f0"></rect><rect x="84.87" y="156.81" width="1.94" height="1.94" style="fill:#f0f0f0"></rect><rect x="84.87" y="160.06" width="1.94" height="1.94" style="fill:#f0f0f0"></rect><rect x="84.87" y="163.31" width="1.94" height="1.94" style="fill:#f0f0f0"></rect><rect x="84.87" y="166.55" width="1.94" height="1.94" style="fill:#f0f0f0"></rect><rect x="84.87" y="169.8" width="1.94" height="1.94" style="fill:#f0f0f0"></rect><rect x="84.87" y="173.05" width="1.94" height="1.94" style="fill:#f0f0f0"></rect><rect x="84.87" y="176.29" width="1.94" height="1.94" style="fill:#f0f0f0"></rect><rect x="84.87" y="179.54" width="1.94" height="1.94" style="fill:#f0f0f0"></rect><rect x="84.87" y="182.79" width="1.94" height="1.94" style="fill:#f0f0f0"></rect><rect x="84.87" y="186.04" width="1.94" height="1.94" style="fill:#f0f0f0"></rect><rect x="84.87" y="189.28" width="1.94" height="1.94" style="fill:#f0f0f0"></rect><rect x="84.87" y="192.53" width="1.94" height="1.94" style="fill:#f0f0f0"></rect><rect x="84.87" y="195.78" width="1.94" height="1.94" style="fill:#f0f0f0"></rect><rect x="84.87" y="199.03" width="1.94" height="1.94" style="fill:#f0f0f0"></rect><rect x="84.87" y="202.27" width="1.94" height="1.94" style="fill:#f0f0f0"></rect><rect x="84.87" y="205.52" width="1.94" height="1.94" style="fill:#f0f0f0"></rect><rect x="81.8" y="147.07" width="1.94" height="1.94" style="fill:#f0f0f0"></rect><rect x="81.8" y="150.32" width="1.94" height="1.94" style="fill:#f0f0f0"></rect><rect x="81.8" y="153.56" width="1.94" height="1.94" style="fill:#f0f0f0"></rect><rect x="81.8" y="156.81" width="1.94" height="1.94" style="fill:#f0f0f0"></rect><rect x="81.8" y="160.06" width="1.94" height="1.94" style="fill:#f0f0f0"></rect><rect x="81.8" y="163.31" width="1.94" height="1.94" style="fill:#f0f0f0"></rect><rect x="81.8" y="166.55" width="1.94" height="1.94" style="fill:#f0f0f0"></rect><rect x="81.8" y="169.8" width="1.94" height="1.94" style="fill:#f0f0f0"></rect><rect x="81.8" y="173.05" width="1.94" height="1.94" style="fill:#f0f0f0"></rect><rect x="81.8" y="176.29" width="1.94" height="1.94" style="fill:#f0f0f0"></rect><rect x="81.8" y="179.54" width="1.94" height="1.94" style="fill:#f0f0f0"></rect><rect x="81.8" y="182.79" width="1.94" height="1.94" style="fill:#f0f0f0"></rect><rect x="81.8" y="186.04" width="1.94" height="1.94" style="fill:#f0f0f0"></rect><rect x="81.8" y="189.28" width="1.94" height="1.94" style="fill:#f0f0f0"></rect><rect x="81.8" y="192.53" width="1.94" height="1.94" style="fill:#f0f0f0"></rect><rect x="78.72" y="147.07" width="1.94" height="1.94" style="fill:#f0f0f0"></rect><rect x="78.72" y="150.32" width="1.94" height="1.94" style="fill:#f0f0f0"></rect><rect x="78.72" y="153.56" width="1.94" height="1.94" style="fill:#f0f0f0"></rect><rect x="78.72" y="156.81" width="1.94" height="1.94" style="fill:#f0f0f0"></rect><rect x="78.72" y="160.06" width="1.94" height="1.94" style="fill:#f0f0f0"></rect><rect x="78.72" y="163.31" width="1.94" height="1.94" style="fill:#f0f0f0"></rect><rect x="78.72" y="166.55" width="1.94" height="1.94" style="fill:#f0f0f0"></rect><rect x="78.72" y="169.8" width="1.94" height="1.94" style="fill:#f0f0f0"></rect><rect x="78.72" y="173.05" width="1.94" height="1.94" style="fill:#f0f0f0"></rect><rect x="78.72" y="176.29" width="1.94" height="1.94" style="fill:#f0f0f0"></rect><rect x="78.72" y="179.54" width="1.94" height="1.94" style="fill:#f0f0f0"></rect><rect x="78.72" y="182.79" width="1.94" height="1.94" style="fill:#f0f0f0"></rect><rect x="78.72" y="186.04" width="1.94" height="1.94" style="fill:#f0f0f0"></rect><rect x="75.65" y="147.07" width="1.94" height="1.94" style="fill:#f0f0f0"></rect><rect x="75.65" y="150.32" width="1.94" height="1.94" style="fill:#f0f0f0"></rect><rect x="75.65" y="153.56" width="1.94" height="1.94" style="fill:#f0f0f0"></rect><rect x="75.65" y="156.81" width="1.94" height="1.94" style="fill:#f0f0f0"></rect><rect x="75.65" y="160.06" width="1.94" height="1.94" style="fill:#f0f0f0"></rect><rect x="75.65" y="163.31" width="1.94" height="1.94" style="fill:#f0f0f0"></rect><rect x="75.65" y="166.55" width="1.94" height="1.94" style="fill:#f0f0f0"></rect><rect x="75.65" y="169.8" width="1.94" height="1.94" style="fill:#f0f0f0"></rect><rect x="75.65" y="173.05" width="1.94" height="1.94" style="fill:#f0f0f0"></rect><rect x="75.65" y="176.29" width="1.94" height="1.94" style="fill:#f0f0f0"></rect><rect x="75.65" y="179.54" width="1.94" height="1.94" style="fill:#f0f0f0"></rect><rect x="75.65" y="182.79" width="1.94" height="1.94" style="fill:#f0f0f0"></rect><rect x="255.22" y="146.1" width="1.94" height="1.94" style="fill:#f0f0f0"></rect><rect x="255.22" y="149.35" width="1.94" height="1.94" style="fill:#f0f0f0"></rect><rect x="255.22" y="152.59" width="1.94" height="1.94" style="fill:#f0f0f0"></rect><rect x="255.22" y="155.84" width="1.94" height="1.94" style="fill:#f0f0f0"></rect><rect x="255.22" y="159.09" width="1.94" height="1.94" style="fill:#f0f0f0"></rect><rect x="255.22" y="162.34" width="1.94" height="1.94" style="fill:#f0f0f0"></rect><rect x="255.22" y="165.58" width="1.94" height="1.94" style="fill:#f0f0f0"></rect><rect x="255.22" y="168.83" width="1.94" height="1.94" style="fill:#f0f0f0"></rect><rect x="255.22" y="172.08" width="1.94" height="1.94" style="fill:#f0f0f0"></rect><rect x="255.22" y="175.33" width="1.94" height="1.94" style="fill:#f0f0f0"></rect><rect x="255.22" y="178.57" width="1.94" height="1.94" style="fill:#f0f0f0"></rect><rect x="255.22" y="181.82" width="1.94" height="1.94" style="fill:#f0f0f0"></rect><rect x="255.22" y="185.07" width="1.94" height="1.94" style="fill:#f0f0f0"></rect><rect x="255.22" y="188.31" width="1.94" height="1.94" style="fill:#f0f0f0"></rect><rect x="255.22" y="191.56" width="1.94" height="1.94" style="fill:#f0f0f0"></rect><rect x="255.22" y="194.81" width="1.94" height="1.94" style="fill:#f0f0f0"></rect><rect x="255.22" y="198.06" width="1.94" height="1.94" style="fill:#f0f0f0"></rect><rect x="255.22" y="204.55" width="1.94" height="1.94" style="fill:#f0f0f0"></rect><rect x="255.22" y="207.8" width="1.94" height="1.94" style="fill:#f0f0f0"></rect><rect x="255.22" y="211.05" width="1.94" height="1.94" style="fill:#f0f0f0"></rect><rect x="255.22" y="214.29" width="1.94" height="1.94" style="fill:#f0f0f0"></rect><rect x="255.22" y="217.54" width="1.94" height="1.94" style="fill:#f0f0f0"></rect><rect x="252.14" y="146.1" width="1.94" height="1.94" style="fill:#f0f0f0"></rect><rect x="252.14" y="149.35" width="1.94" height="1.94" style="fill:#f0f0f0"></rect><rect x="252.14" y="152.59" width="1.94" height="1.94" style="fill:#f0f0f0"></rect><rect x="252.14" y="155.84" width="1.94" height="1.94" style="fill:#f0f0f0"></rect><rect x="252.14" y="159.09" width="1.94" height="1.94" style="fill:#f0f0f0"></rect><rect x="252.14" y="162.34" width="1.94" height="1.94" style="fill:#f0f0f0"></rect><rect x="252.14" y="165.58" width="1.94" height="1.94" style="fill:#f0f0f0"></rect><rect x="252.14" y="168.83" width="1.94" height="1.94" style="fill:#f0f0f0"></rect><rect x="252.14" y="172.08" width="1.94" height="1.94" style="fill:#f0f0f0"></rect><rect x="252.14" y="175.33" width="1.94" height="1.94" style="fill:#f0f0f0"></rect><rect x="252.14" y="178.57" width="1.94" height="1.94" style="fill:#f0f0f0"></rect><rect x="252.14" y="181.82" width="1.94" height="1.94" style="fill:#f0f0f0"></rect><rect x="252.14" y="185.07" width="1.94" height="1.94" style="fill:#f0f0f0"></rect><rect x="252.14" y="188.31" width="1.94" height="1.94" style="fill:#f0f0f0"></rect><rect x="252.14" y="191.56" width="1.94" height="1.94" style="fill:#f0f0f0"></rect><rect x="252.14" y="194.81" width="1.94" height="1.94" style="fill:#f0f0f0"></rect><rect x="252.14" y="214.29" width="1.94" height="1.94" style="fill:#f0f0f0"></rect><rect x="252.14" y="217.54" width="1.94" height="1.94" style="fill:#f0f0f0"></rect><rect x="249.06" y="146.1" width="1.94" height="1.94" style="fill:#f0f0f0"></rect><rect x="249.06" y="149.35" width="1.94" height="1.94" style="fill:#f0f0f0"></rect><rect x="249.06" y="152.59" width="1.94" height="1.94" style="fill:#f0f0f0"></rect><rect x="249.06" y="155.84" width="1.94" height="1.94" style="fill:#f0f0f0"></rect><rect x="249.06" y="159.09" width="1.94" height="1.94" style="fill:#f0f0f0"></rect><rect x="249.06" y="162.34" width="1.94" height="1.94" style="fill:#f0f0f0"></rect><rect x="249.06" y="165.58" width="1.94" height="1.94" style="fill:#f0f0f0"></rect><rect x="249.06" y="168.83" width="1.94" height="1.94" style="fill:#f0f0f0"></rect><rect x="249.06" y="172.08" width="1.94" height="1.94" style="fill:#f0f0f0"></rect><rect x="249.06" y="175.33" width="1.94" height="1.94" style="fill:#f0f0f0"></rect><rect x="249.06" y="178.57" width="1.94" height="1.94" style="fill:#f0f0f0"></rect><rect x="249.06" y="181.82" width="1.94" height="1.94" style="fill:#f0f0f0"></rect><rect x="249.06" y="185.07" width="1.94" height="1.94" style="fill:#f0f0f0"></rect><rect x="249.06" y="188.31" width="1.94" height="1.94" style="fill:#f0f0f0"></rect><rect x="249.06" y="191.56" width="1.94" height="1.94" style="fill:#f0f0f0"></rect><rect x="249.06" y="194.81" width="1.94" height="1.94" style="fill:#f0f0f0"></rect><rect x="249.06" y="201.3" width="1.94" height="1.94" style="fill:#f0f0f0"></rect><rect x="249.06" y="204.55" width="1.94" height="1.94" style="fill:#f0f0f0"></rect><rect x="249.06" y="207.8" width="1.94" height="1.94" style="fill:#f0f0f0"></rect><rect x="249.06" y="211.05" width="1.94" height="1.94" style="fill:#f0f0f0"></rect><rect x="249.06" y="217.54" width="1.94" height="1.94" style="fill:#f0f0f0"></rect><rect x="195.4" y="168.83" width="1.94" height="1.94" style="fill:#f0f0f0"></rect><rect x="195.4" y="172.08" width="1.94" height="1.94" style="fill:#f0f0f0"></rect><rect x="195.4" y="175.33" width="1.94" height="1.94" style="fill:#f0f0f0"></rect><rect x="195.4" y="178.57" width="1.94" height="1.94" style="fill:#f0f0f0"></rect><rect x="195.4" y="181.82" width="1.94" height="1.94" style="fill:#f0f0f0"></rect><rect x="195.4" y="185.07" width="1.94" height="1.94" style="fill:#f0f0f0"></rect><rect x="195.4" y="188.31" width="1.94" height="1.94" style="fill:#f0f0f0"></rect><rect x="195.4" y="191.56" width="1.94" height="1.94" style="fill:#f0f0f0"></rect><rect x="195.4" y="194.81" width="1.94" height="1.94" style="fill:#f0f0f0"></rect><rect x="195.4" y="198.06" width="1.94" height="1.94" style="fill:#f0f0f0"></rect><rect x="195.4" y="201.3" width="1.94" height="1.94" style="fill:#f0f0f0"></rect><rect x="195.4" y="204.55" width="1.94" height="1.94" style="fill:#f0f0f0"></rect><rect x="195.4" y="207.8" width="1.94" height="1.94" style="fill:#f0f0f0"></rect><rect x="195.4" y="214.29" width="1.94" height="1.94" style="fill:#f0f0f0"></rect><rect x="195.4" y="217.54" width="1.94" height="1.94" style="fill:#f0f0f0"></rect><rect x="195.4" y="220.79" width="1.94" height="1.94" style="fill:#f0f0f0"></rect><rect x="195.4" y="224.04" width="1.94" height="1.94" style="fill:#f0f0f0"></rect><rect x="195.4" y="230.53" width="1.94" height="1.94" style="fill:#f0f0f0"></rect><rect x="195.4" y="233.78" width="1.94" height="1.94" style="fill:#f0f0f0"></rect><rect x="195.4" y="237.02" width="1.94" height="1.94" style="fill:#f0f0f0"></rect><rect x="192.32" y="168.83" width="1.94" height="1.94" style="fill:#f0f0f0"></rect><rect x="192.32" y="172.08" width="1.94" height="1.94" style="fill:#f0f0f0"></rect><rect x="192.32" y="175.33" width="1.94" height="1.94" style="fill:#f0f0f0"></rect><rect x="192.32" y="178.57" width="1.94" height="1.94" style="fill:#f0f0f0"></rect><rect x="192.32" y="181.82" width="1.94" height="1.94" style="fill:#f0f0f0"></rect><rect x="192.32" y="185.07" width="1.94" height="1.94" style="fill:#f0f0f0"></rect><rect x="192.32" y="188.31" width="1.94" height="1.94" style="fill:#f0f0f0"></rect><rect x="192.32" y="191.56" width="1.94" height="1.94" style="fill:#f0f0f0"></rect><rect x="192.32" y="194.81" width="1.94" height="1.94" style="fill:#f0f0f0"></rect><rect x="192.32" y="198.06" width="1.94" height="1.94" style="fill:#f0f0f0"></rect><rect x="192.32" y="201.3" width="1.94" height="1.94" style="fill:#f0f0f0"></rect><rect x="192.32" y="204.55" width="1.94" height="1.94" style="fill:#f0f0f0"></rect><rect x="192.32" y="207.8" width="1.94" height="1.94" style="fill:#f0f0f0"></rect><rect x="192.32" y="217.54" width="1.94" height="1.94" style="fill:#f0f0f0"></rect><rect x="192.32" y="220.79" width="1.94" height="1.94" style="fill:#f0f0f0"></rect><rect x="192.32" y="227.28" width="1.94" height="1.94" style="fill:#f0f0f0"></rect><rect x="192.32" y="230.53" width="1.94" height="1.94" style="fill:#f0f0f0"></rect><rect x="192.32" y="233.78" width="1.94" height="1.94" style="fill:#f0f0f0"></rect><rect x="192.32" y="237.02" width="1.94" height="1.94" style="fill:#f0f0f0"></rect><rect x="189.24" y="168.83" width="1.94" height="1.94" style="fill:#f0f0f0"></rect><rect x="189.24" y="172.08" width="1.94" height="1.94" style="fill:#f0f0f0"></rect><rect x="189.24" y="175.33" width="1.94" height="1.94" style="fill:#f0f0f0"></rect><rect x="189.24" y="178.57" width="1.94" height="1.94" style="fill:#f0f0f0"></rect><rect x="189.24" y="181.82" width="1.94" height="1.94" style="fill:#f0f0f0"></rect><rect x="189.24" y="185.07" width="1.94" height="1.94" style="fill:#f0f0f0"></rect><rect x="189.24" y="188.31" width="1.94" height="1.94" style="fill:#f0f0f0"></rect><rect x="189.24" y="191.56" width="1.94" height="1.94" style="fill:#f0f0f0"></rect><rect x="189.24" y="194.81" width="1.94" height="1.94" style="fill:#f0f0f0"></rect><rect x="189.24" y="198.06" width="1.94" height="1.94" style="fill:#f0f0f0"></rect><rect x="189.24" y="201.3" width="1.94" height="1.94" style="fill:#f0f0f0"></rect><rect x="189.24" y="204.55" width="1.94" height="1.94" style="fill:#f0f0f0"></rect><rect x="189.24" y="207.8" width="1.94" height="1.94" style="fill:#f0f0f0"></rect><rect x="189.24" y="211.05" width="1.94" height="1.94" style="fill:#f0f0f0"></rect><rect x="189.24" y="217.54" width="1.94" height="1.94" style="fill:#f0f0f0"></rect><rect x="189.24" y="224.04" width="1.94" height="1.94" style="fill:#f0f0f0"></rect><rect x="189.24" y="227.28" width="1.94" height="1.94" style="fill:#f0f0f0"></rect><rect x="189.24" y="230.53" width="1.94" height="1.94" style="fill:#f0f0f0"></rect><rect x="189.24" y="233.78" width="1.94" height="1.94" style="fill:#f0f0f0"></rect><rect x="189.24" y="237.02" width="1.94" height="1.94" style="fill:#f0f0f0"></rect><rect x="207.93" y="187.35" width="1.94" height="1.94" style="fill:#f0f0f0"></rect><rect x="207.93" y="190.59" width="1.94" height="1.94" style="fill:#f0f0f0"></rect><rect x="207.93" y="193.84" width="1.94" height="1.94" style="fill:#f0f0f0"></rect><rect x="207.93" y="197.09" width="1.94" height="1.94" style="fill:#f0f0f0"></rect><rect x="207.93" y="200.34" width="1.94" height="1.94" style="fill:#f0f0f0"></rect><rect x="207.93" y="203.58" width="1.94" height="1.94" style="fill:#f0f0f0"></rect><rect x="207.93" y="213.33" width="1.94" height="1.94" style="fill:#f0f0f0"></rect><rect x="207.93" y="216.57" width="1.94" height="1.94" style="fill:#f0f0f0"></rect><rect x="207.93" y="219.82" width="1.94" height="1.94" style="fill:#f0f0f0"></rect><rect x="207.93" y="223.07" width="1.94" height="1.94" style="fill:#f0f0f0"></rect><rect x="207.93" y="226.31" width="1.94" height="1.94" style="fill:#f0f0f0"></rect><rect x="207.93" y="229.56" width="1.94" height="1.94" style="fill:#f0f0f0"></rect><rect x="207.93" y="232.81" width="1.94" height="1.94" style="fill:#f0f0f0"></rect><rect x="204.85" y="187.35" width="1.94" height="1.94" style="fill:#f0f0f0"></rect><rect x="204.85" y="190.59" width="1.94" height="1.94" style="fill:#f0f0f0"></rect><rect x="204.85" y="193.84" width="1.94" height="1.94" style="fill:#f0f0f0"></rect><rect x="204.85" y="197.09" width="1.94" height="1.94" style="fill:#f0f0f0"></rect><rect x="204.85" y="200.34" width="1.94" height="1.94" style="fill:#f0f0f0"></rect><rect x="204.85" y="203.58" width="1.94" height="1.94" style="fill:#f0f0f0"></rect><rect x="204.85" y="213.33" width="1.94" height="1.94" style="fill:#f0f0f0"></rect><rect x="204.85" y="216.57" width="1.94" height="1.94" style="fill:#f0f0f0"></rect><rect x="204.85" y="219.82" width="1.94" height="1.94" style="fill:#f0f0f0"></rect><rect x="204.85" y="223.07" width="1.94" height="1.94" style="fill:#f0f0f0"></rect><rect x="204.85" y="226.31" width="1.94" height="1.94" style="fill:#f0f0f0"></rect><rect x="204.85" y="229.56" width="1.94" height="1.94" style="fill:#f0f0f0"></rect><rect x="204.85" y="236.06" width="1.94" height="1.94" style="fill:#f0f0f0"></rect><rect x="102.65" y="173.05" width="1.94" height="1.94" style="fill:#f0f0f0"></rect><rect x="102.65" y="176.29" width="1.94" height="1.94" style="fill:#f0f0f0"></rect><rect x="102.65" y="179.54" width="1.94" height="1.94" style="fill:#f0f0f0"></rect><rect x="102.65" y="182.79" width="1.94" height="1.94" style="fill:#f0f0f0"></rect><rect x="102.65" y="186.04" width="1.94" height="1.94" style="fill:#f0f0f0"></rect><rect x="102.65" y="189.28" width="1.94" height="1.94" style="fill:#f0f0f0"></rect><rect x="102.65" y="192.53" width="1.94" height="1.94" style="fill:#f0f0f0"></rect><rect x="102.65" y="195.78" width="1.94" height="1.94" style="fill:#f0f0f0"></rect><rect x="102.65" y="199.03" width="1.94" height="1.94" style="fill:#f0f0f0"></rect><rect x="102.65" y="202.27" width="1.94" height="1.94" style="fill:#f0f0f0"></rect><rect x="102.65" y="205.52" width="1.94" height="1.94" style="fill:#f0f0f0"></rect><rect x="102.65" y="212.01" width="1.94" height="1.94" style="fill:#f0f0f0"></rect><rect x="102.65" y="215.26" width="1.94" height="1.94" style="fill:#f0f0f0"></rect><rect x="102.65" y="218.51" width="1.94" height="1.94" style="fill:#f0f0f0"></rect><rect x="102.65" y="221.76" width="1.94" height="1.94" style="fill:#f0f0f0"></rect><rect x="102.65" y="225" width="1.94" height="1.94" style="fill:#f0f0f0"></rect><rect x="102.65" y="228.25" width="1.94" height="1.94" style="fill:#f0f0f0"></rect><rect x="102.65" y="231.5" width="1.94" height="1.94" style="fill:#f0f0f0"></rect><rect x="102.65" y="234.75" width="1.94" height="1.94" style="fill:#f0f0f0"></rect><rect x="99.57" y="173.05" width="1.94" height="1.94" style="fill:#f0f0f0"></rect><rect x="99.57" y="176.29" width="1.94" height="1.94" style="fill:#f0f0f0"></rect><rect x="99.57" y="179.54" width="1.94" height="1.94" style="fill:#f0f0f0"></rect><rect x="99.57" y="182.79" width="1.94" height="1.94" style="fill:#f0f0f0"></rect><rect x="99.57" y="186.04" width="1.94" height="1.94" style="fill:#f0f0f0"></rect><rect x="99.57" y="189.28" width="1.94" height="1.94" style="fill:#f0f0f0"></rect><rect x="99.57" y="192.53" width="1.94" height="1.94" style="fill:#f0f0f0"></rect><rect x="99.57" y="195.78" width="1.94" height="1.94" style="fill:#f0f0f0"></rect><rect x="99.57" y="199.03" width="1.94" height="1.94" style="fill:#f0f0f0"></rect><rect x="99.57" y="202.27" width="1.94" height="1.94" style="fill:#f0f0f0"></rect><rect x="99.57" y="205.52" width="1.94" height="1.94" style="fill:#f0f0f0"></rect><rect x="99.57" y="208.77" width="1.94" height="1.94" style="fill:#f0f0f0"></rect><rect x="99.57" y="212.01" width="1.94" height="1.94" style="fill:#f0f0f0"></rect><rect x="99.57" y="215.26" width="1.94" height="1.94" style="fill:#f0f0f0"></rect><rect x="99.57" y="218.51" width="1.94" height="1.94" style="fill:#f0f0f0"></rect><rect x="99.57" y="221.76" width="1.94" height="1.94" style="fill:#f0f0f0"></rect><rect x="99.57" y="225" width="1.94" height="1.94" style="fill:#f0f0f0"></rect><rect x="99.57" y="228.25" width="1.94" height="1.94" style="fill:#f0f0f0"></rect><rect x="99.57" y="231.5" width="1.94" height="1.94" style="fill:#f0f0f0"></rect><rect x="99.57" y="234.75" width="1.94" height="1.94" style="fill:#f0f0f0"></rect><rect x="117.8" y="185.69" width="1.94" height="1.94" style="fill:#f0f0f0"></rect><rect x="117.8" y="188.94" width="1.94" height="1.94" style="fill:#f0f0f0"></rect><rect x="117.8" y="192.19" width="1.94" height="1.94" style="fill:#f0f0f0"></rect><rect x="117.8" y="195.44" width="1.94" height="1.94" style="fill:#f0f0f0"></rect><rect x="117.8" y="198.68" width="1.94" height="1.94" style="fill:#f0f0f0"></rect><rect x="117.8" y="201.93" width="1.94" height="1.94" style="fill:#f0f0f0"></rect><rect x="117.8" y="205.18" width="1.94" height="1.94" style="fill:#f0f0f0"></rect><rect x="117.8" y="208.43" width="1.94" height="1.94" style="fill:#f0f0f0"></rect><rect x="117.8" y="211.67" width="1.94" height="1.94" style="fill:#f0f0f0"></rect><rect x="117.8" y="214.92" width="1.94" height="1.94" style="fill:#f0f0f0"></rect><rect x="114.73" y="185.69" width="1.94" height="1.94" style="fill:#f0f0f0"></rect><rect x="114.73" y="188.94" width="1.94" height="1.94" style="fill:#f0f0f0"></rect><rect x="114.73" y="192.19" width="1.94" height="1.94" style="fill:#f0f0f0"></rect><rect x="114.73" y="195.44" width="1.94" height="1.94" style="fill:#f0f0f0"></rect><rect x="114.73" y="198.68" width="1.94" height="1.94" style="fill:#f0f0f0"></rect><rect x="114.73" y="201.93" width="1.94" height="1.94" style="fill:#f0f0f0"></rect><rect x="114.73" y="205.18" width="1.94" height="1.94" style="fill:#f0f0f0"></rect><rect x="114.73" y="208.43" width="1.94" height="1.94" style="fill:#f0f0f0"></rect><rect x="114.73" y="211.67" width="1.94" height="1.94" style="fill:#f0f0f0"></rect><rect x="131.72" y="62.46" width="3.25" height="181.11" style="fill:#e0e0e0"></rect><rect x="192.88" y="62.46" width="3.25" height="181.11" style="fill:#e0e0e0"></rect><rect x="254.03" y="62.46" width="3.25" height="181.11" style="fill:#e0e0e0"></rect><circle cx="365.52" cy="61" r="14.17" style="fill:#e0e0e0"></circle><circle cx="365.52" cy="61" r="12.05" style="fill:#f0f0f0"></circle><polyline points="364.95 52.73 364.95 61.16 359.37 58" style="fill:#f0f0f0;stroke:#e0e0e0;stroke-linecap:round;stroke-linejoin:round;stroke-width:2px"></polyline><rect x="320.67" y="126.34" width="92.9" height="119.55" transform="translate(553.24 -235.95) rotate(90)" style="fill:#e0e0e0"></rect><rect x="309" y="141.32" width="116.24" height="89.59" transform="translate(734.24 317.28) rotate(180)" style="fill:#ebebeb"></rect><rect x="401.91" y="152.33" width="13.55" height="19.15" transform="translate(817.37 268.86) rotate(180)" style="fill:#f5f5f5"></rect><rect x="384.27" y="157.98" width="14.26" height="20.5" transform="translate(782.8 281.51) rotate(180)" style="fill:#f5f5f5"></rect><rect x="401.56" y="200.54" width="14.26" height="20.5" transform="translate(841.38 311.52) rotate(172.51)" style="fill:#f5f5f5"></rect><rect x="365.52" y="199.7" width="14.26" height="20.5" transform="translate(745.3 364.94) rotate(180)" style="fill:#f5f5f5"></rect><rect x="382.56" y="197.54" width="14.26" height="20.5" transform="translate(779.37 360.62) rotate(180)" style="fill:#f5f5f5"></rect><rect x="341" y="153.72" width="8.85" height="8.85" transform="translate(690.86 261.34) rotate(180)" style="fill:#f5f5f5"></rect><rect x="329.44" y="154.54" width="8.85" height="8.85" transform="translate(702.49 133.15) rotate(159.06)" style="fill:#f5f5f5"></rect><path d="M345.43,154.84a.52.52,0,1,0,1,0,.52.52,0,1,0-1,0Z" transform="translate(0 -54.95)" style="fill:#e0e0e0"></path><path d="M335.24,154.84a.52.52,0,1,0,1,0,.52.52,0,1,0-1,0Z" transform="translate(0 -54.95)" style="fill:#e0e0e0"></path><path d="M390.88,159.49a.52.52,0,0,0,.52.52.53.53,0,0,0,.52-.52.52.52,0,0,0-.52-.52A.52.52,0,0,0,390.88,159.49Z" transform="translate(0 -54.95)" style="fill:#e0e0e0"></path><circle cx="408.69" cy="98.77" r="0.52" style="fill:#e0e0e0"></circle><path d="M413,201.17a.52.52,0,1,0,1,0,.52.52,0,0,0-1,0Z" transform="translate(0 -54.95)" style="fill:#e0e0e0"></path><circle cx="389.69" cy="143.76" r="0.52" style="fill:#e0e0e0"></circle><path d="M372.13,200.65a.52.52,0,0,0,.52.52.53.53,0,0,0,.52-.52.52.52,0,0,0-.52-.52A.52.52,0,0,0,372.13,200.65Z" transform="translate(0 -54.95)" style="fill:#e0e0e0"></path><rect x="318.06" y="181.42" width="28.41" height="17.81" transform="translate(664.53 325.69) rotate(180)" style="fill:#e0e0e0"></rect><rect x="327.79" y="201.69" width="24.8" height="19.58" transform="translate(680.37 367.99) rotate(180)" style="fill:#e0e0e0"></rect></g><g id="freepik--Shadow--inject-152"><ellipse id="freepik--path--inject-152" cx="250" cy="361.29" rx="193.89" ry="11.32" style="fill:#f5f5f5"></ellipse></g><g id="freepik--floppy-disk-1--inject-152"><path d="M87.43,194.27,72.15,308.1a2.33,2.33,0,0,0,2,2.62L198.46,327.4a2.32,2.32,0,0,0,2.61-2l16.69-124.32a2.33,2.33,0,0,0-2-2.61L101.93,183.2a2.35,2.35,0,0,0-1.72.45l-11.89,9.08A2.33,2.33,0,0,0,87.43,194.27Z" transform="translate(0 -54.95)" style="fill:#263238"></path><path d="M87,305.68l-.89,6.64L186.54,325.8l.89-6.64a5.78,5.78,0,0,0-5-6.5l-89-12A5.79,5.79,0,0,0,87,305.68Z" transform="translate(0 -54.95)" style="fill:#263238"></path><path d="M115.75,185.05l-5.43,40.45a3.56,3.56,0,0,0,3.06,4l81,10.88a3.58,3.58,0,0,0,4-3.06l5.42-40.44Z" transform="translate(0 -54.95)" style="isolation:isolate;opacity:0.2"></path><path d="M115.75,185.06l-5.43,40.43a3.57,3.57,0,0,0,3.07,4l54.92,7.37a3.56,3.56,0,0,0,4-3.06l5.43-40.44ZM135,227.32l-13.86-1.86,4.57-34,13.85,1.86Zm36.58-29.55-9.73-1.3.42-3.12,9.72,1.3Z" transform="translate(0 -54.95)" style="fill:#263238"></path><path d="M115.75,185.06l-5.43,40.43a3.57,3.57,0,0,0,3.07,4l54.92,7.37a3.56,3.56,0,0,0,4-3.06l5.43-40.44ZM135,227.32l-13.86-1.86,4.57-34,13.85,1.86Zm36.58-29.55-9.73-1.3.42-3.12,9.72,1.3Z" transform="translate(0 -54.95)" style="fill:#fff;isolation:isolate;opacity:0.6000000000000001"></path><rect x="190.74" y="316.42" width="7.91" height="6.33" transform="translate(345.16 607.28) rotate(-172.36)" style="isolation:isolate;opacity:0.2"></rect><rect x="75.73" y="300.98" width="7.91" height="6.33" transform="translate(118.21 561.24) rotate(-172.36)" style="isolation:isolate;opacity:0.2"></rect><polygon points="208.91 158.77 210.42 168.29 204.94 167.55 208.91 158.77" style="isolation:isolate;opacity:0.2"></polygon><circle cx="145.05" cy="270.77" r="18.45" transform="translate(-81.19 8.04) rotate(-19.26)" style="fill:#fff;isolation:isolate;opacity:0.6000000000000001"></circle><rect x="141.11" y="266.72" width="8.71" height="8.71" rx="2.06" transform="matrix(0.99, 0.13, -0.13, 0.99, 37.35, -71.89)" style="isolation:isolate;opacity:0.4"></rect><rect x="135.43" y="260.28" width="7.71" height="4.71" rx="1.13" transform="translate(-130.79 83.43) rotate(-37.36)" style="isolation:isolate;opacity:0.4"></rect><path d="M87,305.68l-.89,6.64L186.54,325.8l.89-6.64a5.78,5.78,0,0,0-5-6.5l-89-12A5.79,5.79,0,0,0,87,305.68Z" transform="translate(0 -54.95)" style="fill:#fff;isolation:isolate;opacity:0.6000000000000001"></path></g><g id="freepik--floppy-disk-2--inject-152"><path d="M271.05,100.43l25.1,112.08a2.34,2.34,0,0,1-1.76,2.78L172,242.7a2.32,2.32,0,0,1-2.77-1.76L141.8,118.54a2.32,2.32,0,0,1,1.76-2.77L255.64,90.66a2.34,2.34,0,0,1,1.75.31L270,99A2.35,2.35,0,0,1,271.05,100.43Z" transform="translate(0 -54.95)" style="fill:#263238"></path><path d="M268.73,155.75l13.93,62.16-98.93,22.16L169.8,177.91a5.79,5.79,0,0,1,4.39-6.91l87.63-19.63A5.78,5.78,0,0,1,268.73,155.75Z" transform="translate(0 -54.95)" style="fill:#fff;isolation:isolate;opacity:0.6000000000000001"></path><path d="M242,93.71,251,133.53a3.57,3.57,0,0,1-2.7,4.26l-79.78,17.87a3.57,3.57,0,0,1-4.26-2.7l-8.91-39.82Z" transform="translate(0 -54.95)" style="isolation:isolate;opacity:0.2"></path><path d="M181,107.38l8.92,39.82a3.56,3.56,0,0,0,4.26,2.7l54.08-12.11a3.57,3.57,0,0,0,2.7-4.26L242,93.71Zm59.2,27.05-13.64,3L219.05,104l13.65-3Z" transform="translate(0 -54.95)" style="fill:#263238"></path><path d="M181,107.38l8.92,39.82a3.56,3.56,0,0,0,4.26,2.7l54.08-12.11a3.57,3.57,0,0,0,2.7-4.26L242,93.71Zm59.2,27.05-13.64,3L219.05,104l13.65-3Z" transform="translate(0 -54.95)" style="fill:#fff;isolation:isolate;opacity:0.6000000000000001"></path><rect x="171.1" y="231.42" width="7.91" height="6.33" transform="translate(-47.04 -11.02) rotate(-12.62)" style="isolation:isolate;opacity:0.2"></rect><rect x="284.34" y="206.06" width="7.91" height="6.33" transform="translate(-38.76 13.12) rotate(-12.63)" style="isolation:isolate;opacity:0.2"></rect><polygon points="151.71 75.41 151.03 85.02 156.43 83.81 151.71 75.41" style="isolation:isolate;opacity:0.2"></polygon><g style="isolation:isolate;opacity:0.2"><path d="M263.64,177.3l-80,17.93a.26.26,0,0,1-.3-.19.25.25,0,0,1,.19-.3l80-17.93a.25.25,0,0,1,.3.19A.25.25,0,0,1,263.64,177.3Z" transform="translate(0 -54.95)"></path><path d="M266,187.85l-80,17.93a.25.25,0,0,1-.3-.19.25.25,0,0,1,.19-.3l80-17.93a.25.25,0,0,1,.3.19A.25.25,0,0,1,266,187.85Z" transform="translate(0 -54.95)"></path><path d="M268.37,198.4l-80,17.93a.25.25,0,0,1-.3-.19.25.25,0,0,1,.19-.3l80-17.92a.25.25,0,1,1,.11.48Z" transform="translate(0 -54.95)"></path><path d="M270.73,209l-80,17.92a.25.25,0,1,1-.11-.48l80-17.93a.25.25,0,0,1,.3.19A.25.25,0,0,1,270.73,209Z" transform="translate(0 -54.95)"></path></g><path d="M268.73,155.75l1.56,7-98.93,22.16-1.56-7a5.79,5.79,0,0,1,4.39-6.91l87.63-19.63A5.78,5.78,0,0,1,268.73,155.75Z" transform="translate(0 -54.95)" style="fill:#263238"></path><path d="M203.9,219.54a.58.58,0,0,1-.19,0,.49.49,0,0,1-.31-.44l-1.63-25.7a19.4,19.4,0,0,0-2.9,2.11.49.49,0,0,1-.7,0,.48.48,0,0,1,0-.7c.22-.21,5.58-5.05,10.06-3.81,2.14.59,3.69,2.45,4.6,5.53,3.36,11.31-8.13,22.47-8.62,22.94A.49.49,0,0,1,203.9,219.54Zm-1.25-26.66a.46.46,0,0,1,.11.28l1.56,24.72c2.54-2.75,10.27-12.08,7.58-21.14-.81-2.72-2.12-4.35-3.91-4.85A7.69,7.69,0,0,0,202.65,192.88Z" transform="translate(0 -54.95)" style="fill:#263238"></path><path d="M216.63,218.74h0a.52.52,0,0,1-.45-.55c1.27-12.9,3.14-28.37,4.85-28.79a.79.79,0,0,1,.6.11c2.08,1.26,6.51,19.37,7.38,23a.5.5,0,0,1-.37.6.49.49,0,0,1-.6-.37c-2.42-10.07-5.54-20.84-6.78-22.24-1.06,1.87-2.87,15.46-4.08,27.8A.5.5,0,0,1,216.63,218.74Zm4.69-28.42" transform="translate(0 -54.95)" style="fill:#263238"></path><path d="M215.62,206.81a.49.49,0,0,1-.43-.24.5.5,0,0,1,.16-.69A32.29,32.29,0,0,1,227,201.72a.5.5,0,0,1,.12,1,31.94,31.94,0,0,0-11.28,4A.42.42,0,0,1,215.62,206.81Z" transform="translate(0 -54.95)" style="fill:#263238"></path><path d="M235.59,209.52a.48.48,0,0,1-.48-.39c-.65-2.9-1.2-5.92-1.72-8.85-1-5.83-2.13-11.85-4.09-17.07a.52.52,0,0,1,.3-.65.51.51,0,0,1,.64.3c2,5.3,3.08,11.37,4.13,17.24.53,2.92,1.07,5.94,1.71,8.82a.5.5,0,0,1-.38.59Z" transform="translate(0 -54.95)" style="fill:#263238"></path><path d="M220.05,185.71a.52.52,0,0,1-.45-.28.5.5,0,0,1,.24-.67c1.46-.71,14.38-6.9,18.1-5.11A1.9,1.9,0,0,1,239,181a.5.5,0,1,1-1,.22.87.87,0,0,0-.52-.62c-2.78-1.35-13.39,3.22-17.24,5.1A.54.54,0,0,1,220.05,185.71Z" transform="translate(0 -54.95)" style="fill:#263238"></path><path d="M240.66,209.42a.51.51,0,0,1-.5-.45c-.46-4-2.51-23.95,2-24.95,3.44-.77,7.59,16.07,8.78,21.25a.49.49,0,0,1-.37.6.5.5,0,0,1-.6-.38c-2.34-10.15-5.9-20.88-7.59-20.49-2.78.62-2.19,15-1.18,23.86a.49.49,0,0,1-.44.55Z" transform="translate(0 -54.95)" style="fill:#263238"></path><path d="M238.09,198a.5.5,0,0,1-.49-.4A.51.51,0,0,1,238,197c.08,0,7.69-1.61,11-4.05a.51.51,0,0,1,.7.11.49.49,0,0,1-.11.7c-3.53,2.57-11.1,4.16-11.43,4.22Z" transform="translate(0 -54.95)" style="fill:#263238"></path></g><g id="freepik--Desk--inject-152"><rect x="282.96" y="206.51" width="20.51" height="9.75" style="fill:#263238"></rect><rect x="281.83" y="216.26" width="22.75" height="1.44" style="fill:#263238"></rect><rect x="282.96" y="206.51" width="20.51" height="9.75" style="fill:#fff;isolation:isolate;opacity:0.4"></rect><rect x="281.83" y="216.26" width="22.75" height="1.44" style="fill:#fff;isolation:isolate;opacity:0.6000000000000001"></rect><polygon points="287.79 177.47 261.85 183.57 261.85 204.84 285.02 209.47 287.79 177.47" style="fill:#263238"></polygon><polygon points="287.79 177.47 285.01 209.47 275.77 207.62 261.85 204.83 261.85 183.57 278.48 179.66 287.79 177.47" style="fill:#fff;isolation:isolate;opacity:0.6000000000000001"></polygon><polygon points="287.79 177.47 285.01 209.47 275.77 207.62 278.48 179.66 287.79 177.47" style="isolation:isolate;opacity:0.2"></polygon><rect x="278.55" y="175.26" width="49.83" height="37.13" rx="1.86" style="fill:#263238"></rect><rect x="278.55" y="175.26" width="49.83" height="37.13" rx="1.86" style="fill:#fff;isolation:isolate;opacity:0.6000000000000001"></rect><rect x="284.25" y="175.26" width="44.13" height="37.13" rx="1.86" style="fill:#fff;isolation:isolate;opacity:0.4"></rect><rect x="289.79" y="179.92" width="33.04" height="27.8" style="isolation:isolate;opacity:0.4"></rect><path d="M321.26,261.8H289.79v-26h31.47A83.61,83.61,0,0,1,321.26,261.8Z" transform="translate(0 -54.95)" style="fill:#263238"></path><polygon points="310.71 219.79 275.71 219.79 275.71 218.72 281.01 217.4 305.41 217.4 310.71 218.72 310.71 219.79" style="fill:#263238"></polygon><polygon points="310.71 219.79 275.71 219.79 275.71 218.72 281.01 217.4 305.41 217.4 310.71 218.72 310.71 219.79" style="fill:#fff;isolation:isolate;opacity:0.7000000000000001"></polygon><path d="M321.26,261.8H289.79v-26h31.47A83.61,83.61,0,0,1,321.26,261.8Z" transform="translate(0 -54.95)" style="fill:#fff;isolation:isolate;opacity:0.2"></path><rect x="257.98" y="219.77" width="75.89" height="19.33" rx="1.11" style="fill:#263238"></rect><rect x="257.98" y="219.77" width="75.89" height="19.33" rx="1.11" style="fill:#fff;isolation:isolate;opacity:0.6000000000000001"></rect><rect x="281.03" y="219.77" width="52.83" height="19.33" rx="1.11" style="fill:#fff;isolation:isolate;opacity:0.4"></rect><path d="M326.8,278.92h0a1.06,1.06,0,0,1-1.07-1.06h0a1.07,1.07,0,0,1,1.07-1.07h0a1.07,1.07,0,0,1,1.06,1.07h0A1.06,1.06,0,0,1,326.8,278.92Z" transform="translate(0 -54.95)" style="isolation:isolate;opacity:0.2"></path><rect x="329.27" y="221.84" width="2.13" height="2.13" style="isolation:isolate;opacity:0.2"></rect><rect x="285.14" y="223.74" width="15.57" height="5.61" style="fill:none;stroke:#000;stroke-miterlimit:10;stroke-width:0.5px;isolation:isolate;opacity:0.2"></rect><rect x="285.14" y="231.15" width="15.57" height="5.61" style="fill:none;stroke:#000;stroke-miterlimit:10;stroke-width:0.5px;isolation:isolate;opacity:0.2"></rect><path d="M295.05,281a3.22,3.22,0,0,0-4.25,0h-4.17V282h12.59V281Z" transform="translate(0 -54.95)" style="isolation:isolate;opacity:0.2"></path><polygon points="299.21 233.5 295.22 233.5 295.22 232.69 290.63 232.69 290.63 233.5 286.64 233.5 286.64 234.41 290.63 234.41 290.63 235.23 295.22 235.23 295.22 234.41 299.21 234.41 299.21 233.5" style="isolation:isolate;opacity:0.2"></polygon><line x1="286.64" y1="233.96" x2="299.21" y2="233.96" style="fill:none;stroke:#263238;stroke-miterlimit:10;stroke-width:0.25px"></line><line x1="286.64" y1="226.55" x2="299.21" y2="226.55" style="fill:none;stroke:#263238;stroke-miterlimit:10;stroke-width:0.25px"></line><rect x="286.64" y="235.41" width="1.31" height="0.42" style="isolation:isolate;opacity:0.2"></rect><rect x="286.64" y="227.91" width="1.31" height="0.42" style="isolation:isolate;opacity:0.2"></rect><polygon points="333.86 232.85 304.88 232.85 304.88 219.79 304.3 219.79 304.3 239.1 304.88 239.1 304.88 233.43 333.86 233.43 333.86 232.85" style="isolation:isolate;opacity:0.2"></polygon><polygon points="268.52 239.08 268.52 236.28 270.39 236.28 268.52 235.19 269.93 235.19 268.05 233.97 266.27 233.97 266.27 232.56 268.33 232.56 266.27 231.74 266.27 228.69 268.33 228.69 268.33 226.69 270.39 226.69 268.33 226 268.33 224.58 269.81 224.58 268.6 223.37 267.56 222.33 235.6 222.33 235.6 223.76 233.49 223.76 235.83 224.81 235.83 226 231.52 226 231.52 228.2 229.61 228.2 231.52 229.16 231.52 231.62 232.88 231.62 232.88 232.79 235.6 232.79 235.6 236.28 234.07 236.28 235.32 237.53 235.32 239.09 268.52 239.08" style="fill:#263238"></polygon><polygon points="268.52 239.08 268.52 236.28 270.39 236.28 268.52 235.19 269.93 235.19 268.05 233.97 266.27 233.97 266.27 232.56 268.33 232.56 266.27 231.74 266.27 228.69 268.33 228.69 268.33 226.69 270.39 226.69 268.33 226 268.33 224.58 269.81 224.58 268.6 223.37 267.56 222.33 235.6 222.33 235.6 223.76 233.49 223.76 235.83 224.81 235.83 226 231.52 226 231.52 228.2 229.61 228.2 231.52 229.16 231.52 231.62 232.88 231.62 232.88 232.79 235.6 232.79 235.6 236.28 234.07 236.28 235.32 237.53 235.32 239.09 268.52 239.08" style="fill:#fff;isolation:isolate;opacity:0.7000000000000001"></polygon><polygon points="268.52 239.08 268.52 236.28 270.39 236.28 268.52 235.19 269.93 235.19 268.05 233.97 266.27 233.97 266.27 232.56 268.33 232.56 266.27 231.74 266.27 228.69 268.33 228.69 268.33 226.69 270.39 226.69 268.33 226 268.33 224.58 269.81 224.58 268.6 223.37 267.56 222.33 250.72 222.33 250.72 223.76 248.61 223.76 250.96 224.81 250.96 226 246.65 226 246.65 228.2 244.74 228.2 246.65 229.16 246.65 231.62 248 231.62 248 232.79 250.72 232.79 250.72 236.28 249.2 236.28 250.44 237.53 250.44 239.09 268.52 239.08" style="isolation:isolate;opacity:0.1"></polygon><polygon points="235.83 226 250.96 226 235.83 225.45 235.83 226" style="isolation:isolate;opacity:0.1"></polygon><polygon points="235.6 232.79 250.72 232.79 250.79 233.85 235.6 232.79" style="isolation:isolate;opacity:0.1"></polygon><polygon points="232.88 231.62 248 231.62 232.88 232.15 232.88 231.62" style="isolation:isolate;opacity:0.1"></polygon><polygon points="235.6 236.28 250.72 236.28 235.6 235.73 235.6 236.28" style="isolation:isolate;opacity:0.1"></polygon><polygon points="235.32 237.53 250.44 237.53 250.44 238.11 235.32 237.53" style="isolation:isolate;opacity:0.1"></polygon><polygon points="231.52 228.2 246.65 228.2 231.52 227.72 231.52 228.2" style="isolation:isolate;opacity:0.1"></polygon><polygon points="235.6 223.76 250.72 223.76 235.6 223.23 235.6 223.76" style="isolation:isolate;opacity:0.1"></polygon><polygon points="268.33 224.58 252.99 224.58 268.33 225.05 268.33 224.58" style="isolation:isolate;opacity:0.1"></polygon><polygon points="250.96 226 268.33 226 252.58 226.52 250.96 226" style="isolation:isolate;opacity:0.1"></polygon><polygon points="246.65 228.2 268.33 228.69 268.33 228.2 246.65 228.2" style="isolation:isolate;opacity:0.1"></polygon><polygon points="246.65 229.16 257.37 229.16 246.65 229.68 246.65 229.16" style="isolation:isolate;opacity:0.1"></polygon><polygon points="266.27 231.74 250.72 231.62 266.27 231.27 266.27 231.74" style="isolation:isolate;opacity:0.1"></polygon><polygon points="266.27 232.56 250.44 232.56 266.27 233.09 266.27 232.56" style="isolation:isolate;opacity:0.1"></polygon><polygon points="268.52 235.19 250.96 235.19 250.96 235.73 268.52 235.19" style="isolation:isolate;opacity:0.1"></polygon><polygon points="268.52 236.28 255.79 236.28 268.52 236.64 268.52 236.28" style="isolation:isolate;opacity:0.1"></polygon><polygon points="310.28 361.14 314.94 361.14 323.32 244.54 317.14 244.54 310.28 361.14" style="fill:#263238"></polygon><polygon points="310.28 361.14 314.94 361.14 322.91 250.33 323.32 244.73 317.14 244.73 316.8 250.33 310.28 361.14" style="fill:#fff;isolation:isolate;opacity:0.1"></polygon><polygon points="316.8 250.06 322.91 250.06 323.32 244.73 317.14 244.73 316.8 250.06" style="isolation:isolate;opacity:0.2"></polygon><polygon points="276.08 361.14 280.74 361.14 281.5 244.54 275.32 244.54 276.08 361.14" style="fill:#263238"></polygon><polygon points="275.31 244.73 275.44 263.54 276.07 361.14 280.74 361.14 281.38 263.54 281.5 244.73 275.31 244.73" style="fill:#fff;isolation:isolate;opacity:0.1"></polygon><polygon points="275.31 244.73 275.44 263.75 281.38 263.75 281.5 244.73 275.31 244.73" style="isolation:isolate;opacity:0.2"></polygon><polygon points="226.59 361.14 231.26 361.14 239.63 244.54 233.45 244.54 226.59 361.14" style="fill:#263238"></polygon><polygon points="226.59 361.14 231.26 361.14 239.22 250.33 239.63 244.73 233.45 244.73 233.11 250.33 226.59 361.14" style="fill:#fff;isolation:isolate;opacity:0.1"></polygon><polygon points="233.11 250.06 239.22 250.06 239.63 244.73 233.45 244.73 233.11 250.06" style="isolation:isolate;opacity:0.2"></polygon><polygon points="363.6 361.14 368.26 361.14 361.41 244.54 355.23 244.54 363.6 361.14" style="fill:#263238"></polygon><polygon points="355.23 244.73 355.64 250.33 363.61 361.14 368.26 361.14 361.75 250.33 361.42 244.73 355.23 244.73" style="fill:#fff;isolation:isolate;opacity:0.1"></polygon><polygon points="361.42 244.73 355.23 244.73 355.64 250.06 361.75 250.06 361.42 244.73" style="isolation:isolate;opacity:0.2"></polygon><path d="M230.19,296.58H364.67a1.64,1.64,0,0,1,1.64,1.64v4.19a0,0,0,0,1,0,0H228.55a0,0,0,0,1,0,0v-4.19A1.64,1.64,0,0,1,230.19,296.58Z" transform="translate(594.86 544.04) rotate(180)" style="fill:#263238"></path><path d="M230.19,296.58H364.67a1.64,1.64,0,0,1,1.64,1.64v4.19a0,0,0,0,1,0,0H228.55a0,0,0,0,1,0,0v-4.19A1.64,1.64,0,0,1,230.19,296.58Z" transform="translate(594.86 544.04) rotate(180)" style="fill:#fff;isolation:isolate;opacity:0.4"></path><rect x="228.55" y="296.58" width="137.77" height="2.92" transform="translate(594.86 541.12) rotate(180)" style="isolation:isolate;opacity:0.2"></rect><path d="M225.66,297.34H369.2a1.65,1.65,0,0,0,1.65-1.65h0a1.64,1.64,0,0,0-1.65-1.64H225.66a1.64,1.64,0,0,0-1.65,1.64h0A1.65,1.65,0,0,0,225.66,297.34Z" transform="translate(0 -54.95)" style="fill:#263238"></path><path d="M225.66,297.34H369.2a1.65,1.65,0,0,0,1.65-1.65h0a1.64,1.64,0,0,0-1.65-1.64H225.66a1.64,1.64,0,0,0-1.65,1.64h0A1.65,1.65,0,0,0,225.66,297.34Z" transform="translate(0 -54.95)" style="fill:#fff;isolation:isolate;opacity:0.4"></path><polygon points="353.8 239.1 300.91 239.1 300.91 235.9 340.12 235.9 353.8 237.9 353.8 239.1" style="fill:#263238"></polygon><polygon points="353.8 239.1 300.91 239.1 300.91 235.9 340.12 235.9 353.8 237.9 353.8 239.1" style="fill:#fff;isolation:isolate;opacity:0.6000000000000001"></polygon><polyline points="299.9 235.9 315.63 238.11 353.8 238.11 340.12 235.9 300.91 235.9" style="fill:#fff;isolation:isolate;opacity:0.2"></polyline></g><g id="freepik--Plant--inject-152"><path d="M188.63,352.62s5.9-4.92,11,0,6,35.41,6,35.41" transform="translate(0 -54.95)" style="fill:none;stroke:#263238;stroke-miterlimit:10"></path><path d="M206.05,393.92s-3.48-35.78,9.62-50.82" transform="translate(0 -54.95)" style="fill:none;stroke:#263238;stroke-miterlimit:10"></path><path d="M204.8,390.15s2.68-40.73-7.15-49.77" transform="translate(0 -54.95)" style="fill:none;stroke:#263238;stroke-miterlimit:10"></path><path d="M206.05,390.15s.23-26.92,7.53-31.1,11,9.46,11,9.46" transform="translate(0 -54.95)" style="fill:none;stroke:#263238;stroke-miterlimit:10"></path><path d="M203.16,390.15s1.19-20.66-4.46-28-11.62,3.16-11.62,3.16" transform="translate(0 -54.95)" style="fill:none;stroke:#263238;stroke-miterlimit:10"></path><path d="M205.13,392.92s-3.65-48.33,2.4-56.52" transform="translate(0 -54.95)" style="fill:none;stroke:#263238;stroke-miterlimit:10"></path><path d="M219.83,363s-3.64,1.34-2.56,4.51,12.6,8.38,12.6,8.38,4.82-4.42.39-11.6S219.93,360.7,219.83,363Z" transform="translate(0 -54.95)" style="fill:#263238"></path><path d="M219.83,363s-3.64,1.34-2.56,4.51,12.6,8.38,12.6,8.38,4.82-4.42.39-11.6S219.93,360.7,219.83,363Z" transform="translate(0 -54.95)" style="isolation:isolate;opacity:0.2"></path><path d="M204,356.94s3.88-.17,4.1,3.18-8.4,12.58-8.4,12.58-6.15-2.22-4.83-10.56S203,354.88,204,356.94Z" transform="translate(0 -54.95)" style="fill:#263238"></path><path d="M204,356.94s3.88-.17,4.1,3.18-8.4,12.58-8.4,12.58-6.15-2.22-4.83-10.56S203,354.88,204,356.94Z" transform="translate(0 -54.95)" style="isolation:isolate;opacity:0.2"></path><path d="M200.72,340.94s2.59-.27,2.38-1.85-10-5.63-15.86.93c0,0,3.72,6.38,9.09,6.47S200.72,340.94,200.72,340.94Z" transform="translate(0 -54.95)" style="fill:#263238"></path><path d="M200.72,340.94s2.59-.27,2.38-1.85-10-5.63-15.86.93c0,0,3.72,6.38,9.09,6.47S200.72,340.94,200.72,340.94Z" transform="translate(0 -54.95)" style="isolation:isolate;opacity:0.2"></path><path d="M205.54,337.12s-2.34,1.13-3-.32,5.55-10.09,14-7.59c0,0,.22,7.38-4.3,10.29S205.54,337.12,205.54,337.12Z" transform="translate(0 -54.95)" style="fill:#263238"></path><path d="M205.54,337.12s-2.34,1.13-3-.32,5.55-10.09,14-7.59c0,0,.22,7.38-4.3,10.29S205.54,337.12,205.54,337.12Z" transform="translate(0 -54.95)" style="isolation:isolate;opacity:0.2"></path><path d="M193.3,361.7s1.78-1.44-.14-2.15-11.37-.5-11.47,8.86c0,0,11,1.82,12.36-1.74S193.3,361.7,193.3,361.7Z" transform="translate(0 -54.95)" style="fill:#263238"></path><path d="M193.3,361.7s1.78-1.44-.14-2.15-11.37-.5-11.47,8.86c0,0,11,1.82,12.36-1.74S193.3,361.7,193.3,361.7Z" transform="translate(0 -54.95)" style="isolation:isolate;opacity:0.2"></path><path d="M215.73,340.71s-1.78-1.44.15-2.15,11.37-.5,11.47,8.86c0,0-11,1.83-12.37-1.74S215.73,340.71,215.73,340.71Z" transform="translate(0 -54.95)" style="fill:#263238"></path><path d="M215.73,340.71s-1.78-1.44.15-2.15,11.37-.5,11.47,8.86c0,0-11,1.83-12.37-1.74S215.73,340.71,215.73,340.71Z" transform="translate(0 -54.95)" style="isolation:isolate;opacity:0.2"></path><path d="M209.92,348.25s-.16-1.75,1.25-1.07,6.34,6,1.24,11c0,0-6.87-5.09-5.64-7.74S209.92,348.25,209.92,348.25Z" transform="translate(0 -54.95)" style="fill:#263238"></path><path d="M209.92,348.25s-.16-1.75,1.25-1.07,6.34,6,1.24,11c0,0-6.87-5.09-5.64-7.74S209.92,348.25,209.92,348.25Z" transform="translate(0 -54.95)" style="isolation:isolate;opacity:0.2"></path><path d="M191.7,350.74s1.07-1.4-.49-1.57-8.56,1.7-6.93,8.68c0,0,8.52-.64,8.89-3.54S191.7,350.74,191.7,350.74Z" transform="translate(0 -54.95)" style="fill:#263238"></path><path d="M191.7,350.74s1.07-1.4-.49-1.57-8.56,1.7-6.93,8.68c0,0,8.52-.64,8.89-3.54S191.7,350.74,191.7,350.74Z" transform="translate(0 -54.95)" style="isolation:isolate;opacity:0.2"></path><polygon points="220.51 361.14 191.25 361.14 188.1 329.1 223.67 329.1 220.51 361.14" style="fill:#263238"></polygon><rect x="186.54" y="325.57" width="38.69" height="7.07" style="fill:#263238"></rect><rect x="186.54" y="325.57" width="38.69" height="7.07" style="fill:#fff;isolation:isolate;opacity:0.2"></rect></g><g id="freepik--Character--inject-152"><g id="freepik--group--inject-152"><path d="M361.33,289l-6.48,1a25.29,25.29,0,0,0-4.52-1,30.71,30.71,0,0,0-5,0s-2.93,1.1-2.93,3.91c0,0,6.84,1.84,9.47.74l9.47-.74Z" transform="translate(0 -54.95)" style="fill:#ebb376"></path><path d="M376.7,264.34c-4,4.16-6.78,20.3-7.51,21.4s-14.67,3.11-14.67,3.11-1.46,3,0,5.56c0,0,17.27-.79,19.36-1.89s7.23-13.15,7.23-13.15a24.35,24.35,0,0,0-.68-8.3C379.27,265.94,376.7,264.34,376.7,264.34Z" transform="translate(0 -54.95)" style="fill:#263238"></path><path d="M376.7,264.34c-4,4.16-6.78,20.3-7.51,21.4s-14.67,3.11-14.67,3.11-1.46,3,0,5.56c0,0,17.27-.79,19.36-1.89s7.23-13.15,7.23-13.15a24.35,24.35,0,0,0-.68-8.3C379.27,265.94,376.7,264.34,376.7,264.34Z" transform="translate(0 -54.95)" style="fill:#fff;opacity:0.6000000000000001"></path><path d="M345.88,241.07c.15,1.15-.13,2.14-.63,2.21s-1-.82-1.18-2,.13-2.14.63-2.21S345.73,239.92,345.88,241.07Z" transform="translate(0 -54.95)" style="fill:none;stroke:#263238;stroke-miterlimit:10;stroke-width:0.25px"></path><path d="M346.08,242.13a18,18,0,0,1-2,3.84,2.34,2.34,0,0,0,2.36.65Z" transform="translate(0 -54.95)" style="fill:#d58745"></path><path d="M345,241c.08.7.52,1.22,1,1.17s.78-.66.7-1.36-.53-1.22-1-1.16S344.91,240.29,345,241Z" transform="translate(0 -54.95)" style="fill:#2e353a"></path><path d="M345.16,238.21a1.33,1.33,0,0,1,1.14.4" transform="translate(0 -54.95)" style="fill:none;stroke:#2e353a;stroke-linecap:round;stroke-linejoin:round;stroke-width:0.7246800000000001px"></path><path d="M347.91,250c.17.31.34.61.53.89a9.72,9.72,0,0,0,4.46,3.6,10.43,10.43,0,0,0,1.41.44,8.72,8.72,0,0,0,9.69-4.15c2.52-4.27,1.44-8.19.13-15a9.43,9.43,0,0,0-14.92-5.94C343.34,234.17,345,244.33,347.91,250Z" transform="translate(0 -54.95)" style="fill:#ebb376"></path><path d="M352.9,254.45a10.43,10.43,0,0,0,1.41.44,8.73,8.73,0,0,0,7.39-1.52,10.09,10.09,0,0,0-1.76-2A13.57,13.57,0,0,0,352.9,254.45Z" transform="translate(0 -54.95)" style="isolation:isolate;opacity:0.2"></path><path d="M372.3,259.14c-2.53,3.81-14.65,5.31-14.65,5.31s-5.37-.1-4.71-1.94c2.83-1.24,3.92-3,4.06-4.9a8.66,8.66,0,0,0-.55-3.45,17.88,17.88,0,0,0-.73-1.83l8.09-9.88C361.7,253.37,368.2,256.42,372.3,259.14Z" transform="translate(0 -54.95)" style="fill:#ebb376"></path><path d="M346.05,229.46c2.29-3.6,4.33-3,4.33-3,1.46-3,10.05-3.14,14.41-.18s5.88,8.54,5.59,13c-.42,6.43-4.46,13-4.46,13h0c-5.08,1.35-9.33.24-9.65-2.45s-3-4.68-3-4.68c-2.5.85-4.76-1.94-4.76-1.94s-2.83-2.49-2.07-6S344.11,232.5,346.05,229.46Z" transform="translate(0 -54.95)" style="fill:#263238"></path><line x1="344.07" y1="186.36" x2="349.84" y2="186.24" style="fill:none;stroke:#263238;stroke-miterlimit:10;stroke-width:0.25px"></line><path d="M354.13,243.35a4.48,4.48,0,0,1-1.47,3.53c-1.21.92-2.59-.77-2.9-2.83-.26-1.82,0-4.56,1.56-4.59S354.15,241.44,354.13,243.35Z" transform="translate(0 -54.95)" style="fill:#ebb376"></path><path d="M355.12,262.51s1.95-8.78,13.74-8.7l3,4.35Z" transform="translate(0 -54.95)" style="fill:#263238"></path><path d="M355.12,262.51s1.95-8.78,13.74-8.7l3,4.35Z" transform="translate(0 -54.95)" style="fill:#fff;opacity:0.8"></path><path d="M364.15,310.12l-2.94-8.88s-2.11-16.44-12.84-37.16c0,0,12.91-9.17,27.22-7.8,11,1.05,21.38,29.28,24.62,51.62Z" transform="translate(0 -54.95)" style="fill:#263238"></path><path d="M400.21,307.9l-36,2.23-3-8.88a74.06,74.06,0,0,0-1.54-7.58,127.57,127.57,0,0,0-3.77-12.34,141,141,0,0,0-7.53-17.25s12.91-9.17,27.22-7.8C386.61,257.33,397,285.55,400.21,307.9Z" transform="translate(0 -54.95)" style="fill:#fff;opacity:0.9"></path><path d="M359.67,294.45a117.59,117.59,0,0,0-3.77-11.75,9.42,9.42,0,0,1,2.59-3.32S361.88,290.41,359.67,294.45Z" transform="translate(0 -54.95)" style="isolation:isolate;opacity:0.2"></path><path d="M331,291.52l-5.46-.88a24.32,24.32,0,0,0-4.52-1,29.49,29.49,0,0,0-5,0s-2.93,1.1-2.93,3.91c0,0,6.84,1.83,9.47.73l8.05,1.82Z" transform="translate(0 -54.95)" style="fill:#ebb376"></path><path d="M348.37,264.34c-2.55,2.79-1.06,25.7-1.89,27.27s-19.91-1.6-19.91-1.6l-1.25,5.67s22.42,6.59,26.54,6.67,6.63-24.2,6.63-24.2a21,21,0,0,0-3.59-7.68A20.42,20.42,0,0,0,348.37,264.34Z" transform="translate(0 -54.95)" style="fill:#263238"></path><path d="M348.37,264.34c-2.55,2.79-1.06,25.7-1.89,27.27s-19.91-1.6-19.91-1.6l-1.25,5.67s22.42,6.59,26.54,6.67,6.63-24.2,6.63-24.2a21,21,0,0,0-3.59-7.68A20.42,20.42,0,0,0,348.37,264.34Z" transform="translate(0 -54.95)" style="fill:#fff;opacity:0.9"></path><path d="M371.9,408l7.88-.49a.5.5,0,0,1,.55.44h0l.78,6.22a1.25,1.25,0,0,1-1.15,1.32c-2.76.13-4.08.05-7.55.24a65.58,65.58,0,0,1-9.27.3c-2.94-.29-2.58-3.19-1.31-3.32a19.43,19.43,0,0,0,8.88-4.24A2.06,2.06,0,0,1,371.9,408Z" transform="translate(0 -54.95)" style="fill:#263238"></path><path d="M357.09,371.27c4.47,17,11.51,38.88,11.51,38.88L381,409.2s-6.71-29.55-8.55-47.69c-1.14-11.19-1-20.46,2.24-21.18,2.07-.45,6.89-.44,13.08-.29V317c-17.36,3.56-34.63,10.28-35.94,15.67C350,340.26,353.16,356.32,357.09,371.27Z" transform="translate(0 -54.95)" style="fill:#263238"></path><path d="M357.09,371.27c4.62-2.93,10-6.36,15.32-9.76-1.14-11.19-1-20.46,2.24-21.18,2.07-.45,6.89-.44,13.08-.29V317c-17.36,3.56-34.63,10.28-35.94,15.67C350,340.26,353.16,356.32,357.09,371.27Z" transform="translate(0 -54.95)" style="isolation:isolate;opacity:0.2"></path><path d="M357.09,371.27c4.47,17,11.51,38.88,11.51,38.88L381,409.2s-6.71-29.55-8.55-47.69c-1.14-11.19-1-20.46,2.24-21.18,2.07-.45,6.89-.44,13.08-.29V317c-17.36,3.56-34.63,10.28-35.94,15.67C350,340.26,353.16,356.32,357.09,371.27Z" transform="translate(0 -54.95)" style="fill:#fff;isolation:isolate;opacity:0.2"></path><path d="M331.72,408l7.88-.49a.5.5,0,0,1,.55.44h0l.78,6.22a1.25,1.25,0,0,1-1.15,1.32c-2.76.13-4.08.05-7.55.24a65.58,65.58,0,0,1-9.27.3c-2.94-.29-2.58-3.19-1.31-3.32a19.43,19.43,0,0,0,8.88-4.24A2.06,2.06,0,0,1,331.72,408Z" transform="translate(0 -54.95)" style="fill:#263238"></path><path d="M363.86,314.72,362.77,306l35.37-5.82s11.57,22.92,5.91,34.15c-5.2,10.31-60.49,4.17-69,6s5.79,68.72,5.79,68.72l-12.36.94s-20.22-61.11-16.29-77.32C313.9,325.6,343.05,316.23,363.86,314.72Z" transform="translate(0 -54.95)" style="fill:#263238"></path><path d="M363.86,314.72,362.77,306l35.37-5.82s11.57,22.92,5.91,34.15c-5.2,10.31-60.49,4.17-69,6s5.79,68.72,5.79,68.72l-12.36.94s-20.22-61.11-16.29-77.32C313.9,325.6,343.05,316.23,363.86,314.72Z" transform="translate(0 -54.95)" style="fill:#fff;isolation:isolate;opacity:0.2"></path><polygon points="399.44 249.18 383.05 251.32 382.52 248.91 398.94 246.52 399.44 249.18"></polygon><polygon points="381.15 248.92 381.35 251.32 366.2 253.41 366.2 251.03 381.15 248.92"></polygon><polygon points="365.26 251.17 365.26 253.41 363.06 253.7 363.06 251.53 365.26 251.17"></polygon></g><path d="M344.12,332.78h70.07a0,0,0,0,1,0,0v4.46a6.79,6.79,0,0,1-6.79,6.79H350.91a6.79,6.79,0,0,1-6.79-6.79v-4.46A0,0,0,0,1,344.12,332.78Z" transform="translate(758.3 621.86) rotate(180)" style="fill:#263238"></path><path d="M344.12,332.78h70.07a0,0,0,0,1,0,0v4.46a6.79,6.79,0,0,1-6.79,6.79H350.91a6.79,6.79,0,0,1-6.79-6.79v-4.46A0,0,0,0,1,344.12,332.78Z" transform="translate(758.3 621.86) rotate(180)" style="fill:#fff;isolation:isolate;opacity:0.4"></path><path d="M391.2,304.92H352.62c-2,0-3.45,2.15-3,4.4l6.9,34.71h1.59l-5.87-30.42c-.44-2.24,1-4.38,3-4.38h35.17Z" transform="translate(0 -54.95)" style="fill:#263238"></path><path d="M374.65,345.25v29.33a1.7,1.7,0,0,0,1.7,1.7h7.2a1.7,1.7,0,0,0,1.7-1.7V345.25Z" transform="translate(0 -54.95)" style="fill:#263238"></path><path d="M414.34,413a3.12,3.12,0,1,1,3.12,3.12A3.12,3.12,0,0,1,414.34,413Z" transform="translate(0 -54.95)" style="fill:#263238"></path><path d="M415.9,413a1.56,1.56,0,1,1,1.56,1.56A1.56,1.56,0,0,1,415.9,413Z" transform="translate(0 -54.95)" style="fill:#fff;opacity:0.2"></path><path d="M339.33,413a3.12,3.12,0,1,1,3.12,3.12A3.12,3.12,0,0,1,339.33,413Z" transform="translate(0 -54.95)" style="fill:#263238"></path><path d="M340.89,413a1.56,1.56,0,1,1,1.56,1.56A1.56,1.56,0,0,1,340.89,413Z" transform="translate(0 -54.95)" style="fill:#fff;opacity:0.2"></path><path d="M377.37,399.3V365.77h5.16V399.3c20.08.51,32.28,7.53,34.72,9.07a1,1,0,0,1,.45.83V412a1,1,0,0,1-1,1h0a1,1,0,0,1-.86-.5l-1.19-2.08a112.83,112.83,0,0,0-32.14-5.33v5.51a1.27,1.27,0,0,1-1.27,1.28h-2.61a1.28,1.28,0,0,1-1.28-1.28v-5.51a112.81,112.81,0,0,0-32.13,5.33l-1.2,2.08a1,1,0,0,1-.85.5h0a1,1,0,0,1-1-1V409.2a1,1,0,0,1,.46-.83C345.1,406.83,357.3,399.81,377.37,399.3Z" transform="translate(0 -54.95)" style="fill:#263238"></path><rect x="378.26" y="409.86" width="3.38" height="6.23" transform="translate(759.91 770.99) rotate(180)" style="fill:#263238"></rect><rect x="374.65" y="290.3" width="10.6" height="12.19" style="isolation:isolate;opacity:0.2"></rect><path d="M342.2,342.23v3.5a1.68,1.68,0,0,0,1.54,1.79h70.82a1.67,1.67,0,0,0,1.53-1.79v-3.5a1.68,1.68,0,0,0-1.53-1.79H343.74A1.69,1.69,0,0,0,342.2,342.23Z" transform="translate(0 -54.95)" style="fill:#263238"></path><path d="M374.78,344h41.31s13.13-21.55,13.13-57.18V273.77a9.8,9.8,0,0,0-9.86-9.73H401.84A9.79,9.79,0,0,0,392,273.5C391.47,291.85,388.73,331.6,374.78,344Z" transform="translate(0 -54.95)" style="fill:#263238"></path><path d="M383.87,344h30.36a3.14,3.14,0,0,0,2.79-1.66c3-5.69,12.2-25.67,12.2-55.52V273.77a9.8,9.8,0,0,0-9.86-9.73H404.22a9.79,9.79,0,0,0-9.85,9.46c-.46,16.39-2.69,49.87-13.11,65.69A3.11,3.11,0,0,0,383.87,344Z" transform="translate(0 -54.95)" style="fill:#fff;opacity:0.2"></path><path d="M342.2,342.23v3.5a1.68,1.68,0,0,0,1.54,1.79h31.73a2.27,2.27,0,0,0,2.08-2.42v-2.24a2.27,2.27,0,0,0-2.08-2.42H343.74A1.69,1.69,0,0,0,342.2,342.23Z" transform="translate(0 -54.95)" style="isolation:isolate;opacity:0.2"></path></g></svg>